<?xml version="1.0" encoding="UTF-8" standalone="yes"?>
<svg xmlns="http://www.w3.org/2000/svg" xmlns:xlink="http://www.w3.org/1999/xlink" width="30.855pt" height="22.466pt" version="1.1" viewBox="4296.900 803.593 30.855 22.466">
  <!--
	Exported with Concepts: Smarter Sketching
	Version: 3657 on iOS 18.4
	https://concepts.app/
	-->
  <title>0B9A5EA0-693D-473F-B66F-CACEEB9E213C</title>
  <desc>Drawing exported from Concepts: Smarter Sketching</desc>
  <defs></defs>
  <g id="Watercolor" opacity="1.000">
    <path id="STROKE_759077b2-efd6-4204-a36b-017a7520f2ee" opacity="1.000" fill="none" stroke="#f66640" stroke-width="1.021" stroke-opacity="1.000" stroke-linecap="round" stroke-linejoin="round" d="M 4313.919 805.256 Q 4313.539 805.314 4311.575 806.240 Q 4309.611 807.166 4307.528 809.001 Q 4305.444 810.836 4303.249 812.494 Q 4301.054 814.152 4299.794 815.170 Q 4298.535 816.187 4298.128 817.111 Q 4298.381 817.542 4302.474 815.163 Q 4306.567 812.785 4309.442 810.825 Q 4312.318 808.865 4314.571 807.407 Q 4316.825 805.948 4319.046 804.825 Q 4319.074 804.884 4315.104 807.109 Q 4311.136 809.335 4304.281 815.374 Q 4304.431 815.602 4308.710 813.296 Q 4312.989 810.990 4318.486 808.930 Q 4318.569 808.936 4318.030 809.675 Q 4317.491 810.414 4307.769 816.465 Q 4307.761 816.468 4312.316 816.022 Q 4312.772 816.671 4304.689 822.110 Q 4304.646 822.234 4307.449 820.347 Q 4310.252 818.461 4312.933 817.009 Q 4315.614 815.556 4317.371 814.702 Q 4319.128 813.847 4320.313 813.487 Q 4320.387 813.485 4317.912 815.237 Q 4315.437 816.988 4312.775 818.742 Q 4310.114 820.497 4308.743 822.101 Q 4309.005 822.275 4311.565 821.068 Q 4314.125 819.862 4319.262 817.783 Q 4319.224 817.912 4313.543 821.738 Q 4313.593 821.793 4314.859 821.158 Q 4316.125 820.523 4320.480 818.337 Q 4320.469 818.372 4320.468 818.443 Q 4320.466 818.513 4318.626 820.479 Q 4316.787 822.444 4314.034 824.827 Q 4314.042 824.889 4314.973 824.690 Q 4315.904 824.491 4319.382 822.495 Q 4322.860 820.499 4325.935 819.198 Q 4325.897 819.210 4321.133 823.401 Q 4321.595 823.497 4326.532 820.415 L 4326.035 818.828 "></path>
  </g>
</svg>