<?xml version="1.0" encoding="UTF-8" standalone="yes"?>
<svg xmlns="http://www.w3.org/2000/svg" xmlns:xlink="http://www.w3.org/1999/xlink" width="600pt" height="200pt" version="1.1" viewBox="3862.897 830.899 198.496 44.788">
  <!--
	Exported with Concepts: Smarter Sketching
	Version: 3657 on iOS 18.4
	https://concepts.app/
	-->
  <title>0B9A5EA0-693D-473F-B66F-CACEEB9E213C</title>
  <desc>Drawing exported from Concepts: Smarter Sketching</desc>
  <defs></defs>
  <g id="Watercolor" opacity="1.000">
    <path id="STROKE_89d5da2a-2189-41ea-90f3-fb45071f1ffd" opacity="1.000" fill="none" stroke="#5b77a8" stroke-width="1.338" stroke-opacity="1.000" stroke-linecap="round" stroke-linejoin="round" d="M 3918.311 837.955 Q 3918.549 837.798 3919.544 837.485 Q 3920.538 837.171 3920.758 837.126 Q 3920.978 837.082 3921.291 837.046 Q 3921.604 837.010 3921.803 837.015 Q 3921.826 837.072 3918.025 837.868 Q 3914.223 838.663 3909.604 839.951 Q 3904.984 841.239 3901.844 842.116 Q 3898.704 842.994 3895.387 843.582 Q 3892.070 844.170 3889.580 844.825 Q 3887.089 845.480 3885.839 845.930 Q 3884.589 846.380 3883.453 846.787 Q 3882.318 847.194 3880.853 847.264 Q 3879.388 847.334 3878.392 847.404 Q 3877.396 847.473 3876.996 847.567 Q 3876.596 847.660 3876.402 847.704 Q 3876.209 847.749 3875.791 847.865 Q 3875.373 847.982 3874.877 848.126 Q 3874.381 848.269 3873.695 848.496 Q 3873.009 848.723 3872.411 848.910 Q 3871.813 849.098 3871.351 849.222 Q 3870.888 849.347 3870.418 849.443 Q 3869.947 849.539 3868.991 849.615 Q 3868.034 849.691 3867.559 849.750 Q 3867.083 849.810 3866.781 849.864 Q 3866.478 849.917 3866.264 849.977 L 3866.104 849.883 "></path>
    <path id="STROKE_6aad6b09-e0f1-4ad2-940a-170ea6b7bf38" opacity="1.000" fill="none" stroke="#5b77a8" stroke-width="1.360" stroke-opacity="1.000" stroke-linecap="round" stroke-linejoin="round" d="M 3866.364 851.434 L 3866.122 851.248 Q 3865.909 851.130 3865.871 851.130 Q 3865.832 851.131 3867.647 852.375 Q 3869.462 853.620 3871.484 854.506 Q 3873.506 855.393 3875.285 856.080 Q 3877.063 856.768 3879.164 857.838 Q 3881.265 858.908 3883.690 859.570 Q 3886.115 860.231 3887.966 860.538 Q 3889.817 860.846 3892.158 861.694 Q 3894.499 862.542 3895.896 862.999 Q 3897.294 863.457 3898.685 863.689 Q 3900.077 863.922 3902.560 864.774 Q 3905.044 865.627 3906.216 866.071 Q 3907.389 866.515 3908.479 866.920 Q 3909.570 867.326 3911.256 867.692 Q 3912.943 868.059 3913.971 868.225 Q 3914.999 868.391 3915.668 868.510 Q 3916.337 868.630 3916.521 868.655 Q 3916.704 868.680 3917.101 868.746 Q 3917.498 868.813 3918.616 869.042 L 3918.809 869.125 Q 3919.504 869.290 3919.874 869.281 Q 3920.243 869.272 3920.272 869.248 Q 3920.301 869.223 3920.194 869.173 Q 3920.088 869.123 3919.882 868.990 Q 3919.676 868.857 3919.545 868.751 Q 3919.414 868.644 3919.115 868.294 Q 3918.815 867.943 3918.644 867.714 Q 3918.472 867.485 3918.386 867.215 Q 3918.301 866.944 3918.265 866.624 Q 3918.228 866.304 3918.267 865.855 Q 3918.305 865.407 3918.323 865.362 Q 3918.342 865.317 3918.385 865.008 Q 3918.429 864.699 3918.715 864.209 Q 3919.001 863.719 3919.343 863.402 Q 3919.685 863.084 3919.880 862.932 Q 3920.076 862.780 3920.134 862.723 Q 3920.192 862.666 3920.746 862.367 Q 3921.299 862.068 3921.599 861.890 Q 3921.899 861.712 3922.051 861.569 Q 3922.203 861.425 3922.217 861.160 Q 3922.232 860.894 3922.113 860.585 Q 3921.994 860.276 3921.548 859.678 Q 3921.103 859.081 3920.643 858.654 Q 3920.183 858.227 3919.890 858.014 Q 3919.597 857.801 3919.485 857.713 Q 3919.373 857.625 3919.011 857.385 Q 3918.649 857.146 3918.171 856.640 Q 3917.693 856.135 3917.516 855.817 Q 3917.338 855.499 3917.282 855.261 Q 3917.225 855.023 3917.223 854.944 Q 3917.221 854.865 3917.297 854.479 Q 3917.373 854.093 3917.577 853.784 Q 3917.781 853.476 3918.375 852.844 Q 3918.970 852.211 3919.266 851.799 Q 3919.562 851.386 3919.729 850.886 Q 3919.896 850.386 3919.877 850.351 Q 3919.859 850.316 3919.811 850.047 Q 3919.762 849.777 3919.637 849.432 Q 3919.512 849.087 3919.323 848.737 Q 3919.135 848.387 3919.119 848.359 Q 3919.104 848.332 3918.994 848.068 Q 3918.885 847.804 3918.774 847.366 Q 3918.663 846.928 3918.614 846.542 Q 3918.566 846.155 3918.591 845.682 Q 3918.616 845.208 3918.670 844.930 Q 3918.724 844.652 3918.762 844.442 Q 3918.801 844.232 3918.887 843.896 Q 3918.974 843.560 3919.154 843.085 Q 3919.335 842.611 3919.483 842.038 Q 3919.044 841.125 3917.928 839.439 Q 3917.908 839.160 3922.198 835.577 L 3921.982 835.493 "></path>
    <path id="STROKE_8ea8c9a0-752c-4d5b-819f-6c288f17a7a8" opacity="1.000" fill="none" stroke="#5b77a8" stroke-width="1.360" stroke-opacity="1.000" stroke-linecap="round" stroke-linejoin="round" d="M 3879.910 847.304 L 3879.853 847.322 Q 3879.804 847.320 3879.905 848.094 Q 3880.005 848.869 3880.049 851.052 Q 3880.094 853.235 3880.016 854.495 Q 3879.938 855.756 3880.158 857.396 L 3879.991 857.579 "></path>
    <path id="STROKE_f2f3a06d-5fc6-40a1-9017-fc5ff371e69a" opacity="1.000" fill="none" stroke="#5b77a8" stroke-width="1.350" stroke-opacity="1.000" stroke-linecap="round" stroke-linejoin="round" d="M 3873.998 848.960 Q 3873.990 848.712 3866.389 850.612 Q 3866.307 850.468 3879.097 847.075 Q 3879.029 847.103 3875.887 848.196 Q 3872.746 849.288 3868.812 851.123 Q 3868.605 851.228 3879.813 848.363 Q 3879.754 848.518 3871.173 851.413 Q 3871.274 851.159 3880.741 849.147 Q 3880.794 849.347 3871.017 852.849 Q 3871.141 852.919 3881.545 850.423 Q 3880.811 850.833 3873.391 853.326 Q 3873.021 853.293 3878.636 852.466 Q 3878.736 852.679 3873.262 854.686 Q 3872.853 854.681 3879.585 853.059 Q 3879.327 853.322 3878.484 853.715 Q 3877.642 854.107 3876.037 854.732 Q 3875.907 854.719 3878.226 854.310 Q 3878.242 854.369 3878.202 854.467 Q 3878.161 854.564 3877.759 855.227 L 3879.543 855.323 Q 3879.577 855.382 3879.384 855.783 Q 3879.412 855.808 3881.076 856.077 "></path>
    <path id="STROKE_8247c6b2-6cc7-4757-9ea9-ab8e8e265ad5" opacity="1.000" fill="none" stroke="#ffffff" stroke-width="1.360" stroke-opacity="1.000" stroke-linecap="round" stroke-linejoin="round" d="M 3918.150 870.010 Q 3918.712 869.833 3919.010 869.748 Q 3919.307 869.662 3919.895 869.526 Q 3920.482 869.389 3921.033 869.277 Q 3921.584 869.165 3921.956 869.092 Q 3922.329 869.018 3923.126 868.900 Q 3923.924 868.783 3924.547 868.741 Q 3925.170 868.699 3925.213 868.690 Q 3925.256 868.680 3927.773 868.865 Q 3930.291 869.051 3931.865 869.136 Q 3933.439 869.221 3934.721 869.161 Q 3936.003 869.100 3936.731 869.104 Q 3937.458 869.107 3938.552 869.185 Q 3939.646 869.263 3939.904 869.289 Q 3940.162 869.314 3940.482 869.344 Q 3940.802 869.374 3942.152 869.563 Q 3943.502 869.752 3944.008 869.816 Q 3944.514 869.879 3946.842 869.806 Q 3949.169 869.733 3950.917 869.828 Q 3952.666 869.923 3953.599 870.043 Q 3954.532 870.162 3954.870 870.213 Q 3955.208 870.263 3956.848 870.388 Q 3958.489 870.513 3959.429 870.504 Q 3960.369 870.496 3960.870 870.462 Q 3961.370 870.428 3961.828 870.379 Q 3962.287 870.330 3962.704 870.270 Q 3963.121 870.211 3964.048 870.168 Q 3964.974 870.125 3966.145 870.168 Q 3967.315 870.211 3968.694 870.276 Q 3970.073 870.340 3971.344 870.403 Q 3972.616 870.465 3973.823 870.460 Q 3975.029 870.456 3976.133 870.425 Q 3977.236 870.394 3977.541 870.389 Q 3977.845 870.383 3978.783 870.395 Q 3979.721 870.406 3981.792 870.779 Q 3983.862 871.152 3985.028 871.312 Q 3986.193 871.471 3986.931 871.521 Q 3987.668 871.572 3988.037 871.594 Q 3988.406 871.616 3988.678 871.626 Q 3988.950 871.637 3989.315 871.654 Q 3989.680 871.670 3990.008 871.679 Q 3990.336 871.688 3991.660 871.782 Q 3992.983 871.877 3993.564 871.982 Q 3994.145 872.087 3996.109 872.336 Q 3998.073 872.584 3999.709 872.530 Q 4001.345 872.476 4002.157 872.457 Q 4002.968 872.438 4003.610 872.425 Q 4004.253 872.412 4004.275 872.409 Q 4004.297 872.406 4005.987 872.404 Q 4007.677 872.402 4009.387 872.495 Q 4011.097 872.588 4011.958 872.642 Q 4012.819 872.695 4013.942 872.693 Q 4015.066 872.690 4016.030 872.557 Q 4016.993 872.423 4017.701 872.290 Q 4018.408 872.156 4019.129 872.069 Q 4019.851 871.981 4020.309 871.930 Q 4020.768 871.878 4022.562 871.822 Q 4024.356 871.765 4025.596 871.872 Q 4026.835 871.979 4028.601 872.050 Q 4030.367 872.120 4031.147 872.078 Q 4031.927 872.036 4033.551 871.995 Q 4035.175 871.955 4036.702 871.938 Q 4038.229 871.921 4039.208 871.939 Q 4040.188 871.957 4040.738 871.984 Q 4041.289 872.011 4041.780 872.023 Q 4042.270 872.035 4042.327 872.031 Q 4042.383 872.027 4043.555 872.020 Q 4044.727 872.013 4046.387 872.006 Q 4048.048 871.998 4049.110 872.055 Q 4050.172 872.111 4050.694 872.180 Q 4051.216 872.248 4051.534 872.315 Q 4051.852 872.381 4057.697 872.098 "></path>
    <path id="STROKE_8e7d956d-06f9-4fe7-847e-1fa2aaf5a852" opacity="1.000" fill="none" stroke="#ffffff" stroke-width="1.360" stroke-opacity="1.000" stroke-linecap="round" stroke-linejoin="round" d="M 3922.015 837.423 L 3921.939 837.330 Q 3921.726 837.276 3921.696 837.275 Q 3921.665 837.273 3921.281 837.197 Q 3920.898 837.120 3920.773 837.083 Q 3920.649 837.046 3920.381 836.915 Q 3920.440 836.823 3920.401 836.778 Q 3920.361 836.734 3922.963 836.870 Q 3925.565 837.006 3927.434 837.025 Q 3929.303 837.044 3930.548 836.937 Q 3931.793 836.829 3932.646 836.803 Q 3933.500 836.778 3935.031 836.947 Q 3936.561 837.115 3937.865 837.135 Q 3939.170 837.155 3939.690 837.101 Q 3940.210 837.046 3940.686 836.988 Q 3941.161 836.929 3942.098 836.798 Q 3943.035 836.668 3944.057 836.521 Q 3945.078 836.375 3946.582 836.238 Q 3948.085 836.102 3949.397 836.083 Q 3950.709 836.065 3952.465 836.116 Q 3954.222 836.167 3955.582 836.030 Q 3956.941 835.893 3958.690 835.666 Q 3960.438 835.438 3961.372 835.389 Q 3962.305 835.340 3963.244 835.368 Q 3964.184 835.396 3965.005 835.382 Q 3965.827 835.368 3966.021 835.347 Q 3966.215 835.327 3967.817 835.230 Q 3969.419 835.133 3971.271 835.084 Q 3973.124 835.035 3975.259 834.726 Q 3977.395 834.417 3979.419 834.503 Q 3981.443 834.589 3983.066 834.704 Q 3984.690 834.819 3986.769 834.703 Q 3988.848 834.587 3990.072 834.440 Q 3991.296 834.292 3992.072 834.277 Q 3992.847 834.263 3993.882 834.305 Q 3994.918 834.348 3995.841 834.404 Q 3996.765 834.460 3997.646 834.523 Q 3998.528 834.585 3999.182 834.606 Q 3999.837 834.627 4000.518 834.625 Q 4001.200 834.624 4002.502 834.531 Q 4003.804 834.439 4004.451 834.375 Q 4005.097 834.312 4008.274 834.479 Q 4011.452 834.647 4012.991 834.747 Q 4014.531 834.847 4015.610 834.812 Q 4016.690 834.777 4017.660 834.742 Q 4018.630 834.708 4019.358 834.728 Q 4020.087 834.749 4020.122 834.755 Q 4020.157 834.761 4021.243 834.840 Q 4022.329 834.919 4025.344 834.823 Q 4028.359 834.726 4030.512 834.559 Q 4032.665 834.392 4033.925 834.225 Q 4035.186 834.058 4035.416 834.040 Q 4035.646 834.021 4036.697 833.970 Q 4037.749 833.918 4039.152 833.952 Q 4040.556 833.986 4041.422 833.998 Q 4042.288 834.011 4044.705 833.935 Q 4047.121 833.859 4049.652 833.918 Q 4052.183 833.978 4054.418 834.161 Q 4056.653 834.344 4058.432 834.448 "></path>
    <path id="STROKE_5daa96c1-ec63-4632-85b8-0615b1f3eca9" opacity="1.000" fill="none" stroke="#ffffff" stroke-width="1.358" stroke-opacity="1.000" stroke-linecap="round" stroke-linejoin="round" d="M 3921.559 846.869 Q 3921.563 846.885 3921.494 846.879 Q 3921.425 846.873 3921.400 846.894 Q 3921.384 846.964 3922.550 847.145 Q 3923.717 847.325 3925.180 847.346 Q 3926.643 847.368 3928.100 847.321 Q 3929.556 847.273 3931.152 847.289 Q 3932.747 847.305 3934.640 847.509 Q 3936.533 847.712 3939.430 847.734 Q 3942.326 847.755 3943.816 847.605 Q 3945.305 847.454 3947.029 847.490 Q 3948.754 847.525 3950.173 847.637 Q 3951.592 847.749 3954.487 847.390 Q 3957.383 847.031 3959.762 846.825 Q 3962.141 846.619 3964.150 846.630 Q 3966.160 846.642 3967.634 846.525 Q 3969.107 846.409 3971.276 846.159 Q 3973.445 845.910 3975.129 845.665 Q 3976.814 845.420 3980.076 845.497 Q 3983.338 845.573 3985.478 845.654 Q 3987.617 845.735 3988.992 845.678 Q 3990.367 845.622 3991.979 845.567 Q 3993.592 845.513 3995.505 845.633 Q 3997.418 845.752 3999.131 845.831 Q 4000.844 845.909 4001.494 845.872 Q 4002.145 845.834 4003.230 845.665 Q 4004.315 845.495 4005.742 845.461 Q 4007.168 845.426 4008.996 845.580 Q 4010.824 845.734 4011.433 845.760 Q 4012.043 845.787 4013.563 845.552 Q 4015.084 845.316 4016.004 845.095 Q 4016.924 844.875 4018.600 844.663 Q 4020.276 844.452 4022.307 844.461 Q 4024.338 844.470 4025.328 844.537 Q 4026.319 844.605 4027.077 844.698 Q 4027.835 844.792 4029.609 844.923 Q 4031.383 845.054 4033.379 844.803 "></path>
    <path id="STROKE_0ac6b80d-1336-47f9-ad47-b9c7999e10b8" opacity="1.000" fill="none" stroke="#ffffff" stroke-width="1.337" stroke-opacity="1.000" stroke-linecap="round" stroke-linejoin="round" d="M 3921.285 857.470 Q 3921.381 857.409 3921.701 857.290 Q 3922.020 857.171 3924.002 857.014 Q 3925.984 856.856 3927.448 856.820 Q 3928.912 856.783 3929.451 856.767 Q 3929.991 856.750 3931.328 856.630 Q 3932.665 856.510 3934.481 856.491 Q 3936.298 856.473 3937.566 856.648 Q 3938.835 856.824 3940.583 856.832 Q 3942.330 856.840 3945.256 856.516 Q 3948.182 856.192 3949.935 856.099 Q 3951.688 856.006 3953.293 856.083 Q 3954.898 856.159 3956.012 856.263 Q 3957.126 856.367 3958.703 856.349 Q 3960.280 856.331 3961.408 856.260 Q 3962.536 856.190 3963.413 856.190 Q 3964.290 856.190 3965.586 856.246 Q 3966.882 856.302 3969.156 856.460 Q 3971.430 856.619 3972.751 856.690 Q 3974.073 856.761 3975.506 856.635 Q 3976.939 856.510 3979.192 856.432 Q 3981.446 856.355 3982.941 856.475 Q 3984.436 856.596 3986.537 856.562 Q 3988.637 856.529 3991.771 856.268 Q 3994.905 856.006 3996.698 855.908 Q 3998.492 855.809 3999.945 855.852 Q 4001.398 855.895 4002.182 855.924 Q 4002.965 855.953 4003.213 855.953 Q 4003.461 855.952 4004.366 855.910 Q 4005.271 855.869 4007.268 855.708 Q 4009.264 855.548 4010.413 855.575 Q 4011.562 855.603 4013.920 856.085 Q 4016.279 856.568 4023.149 856.281 "></path>
    <path id="STROKE_17c20d52-c055-498e-9725-0061f61935e0" opacity="1.000" fill="none" stroke="#ffffff" stroke-width="1.360" stroke-opacity="1.000" stroke-linecap="round" stroke-linejoin="round" d="M 3919.904 839.686 L 3919.837 839.683 Q 3919.738 839.529 3919.762 839.520 Q 3919.670 839.458 3920.209 838.887 Q 3920.747 838.316 3921.253 837.943 Q 3921.759 837.570 3922.114 837.458 Q 3922.470 837.345 3922.657 837.306 Q 3922.845 837.268 3922.936 837.248 Q 3923.026 837.229 3924.489 837.277 Q 3925.951 837.326 3926.688 837.294 Q 3927.424 837.263 3928.342 837.279 Q 3929.261 837.295 3930.062 837.358 Q 3930.864 837.422 3932.112 837.555 Q 3933.360 837.688 3934.541 837.791 Q 3935.721 837.895 3936.713 837.828 Q 3937.706 837.762 3938.531 837.675 Q 3939.356 837.587 3939.979 837.549 Q 3940.602 837.510 3942.059 837.426 Q 3943.516 837.342 3943.971 837.325 Q 3944.426 837.309 3945.384 837.354 Q 3946.343 837.398 3947.340 837.435 Q 3948.337 837.471 3948.872 837.461 Q 3949.407 837.451 3949.768 837.450 Q 3950.128 837.450 3950.595 837.461 Q 3951.063 837.473 3951.887 837.478 Q 3952.712 837.482 3954.171 837.416 Q 3955.629 837.349 3956.722 837.299 Q 3957.814 837.249 3958.311 837.246 Q 3958.808 837.243 3959.264 837.203 Q 3959.720 837.164 3960.009 837.108 Q 3960.299 837.052 3960.605 836.987 Q 3960.912 836.921 3960.969 836.902 Q 3961.026 836.883 3962.500 836.804 Q 3963.975 836.726 3964.778 836.696 Q 3965.580 836.666 3966.579 836.564 Q 3967.577 836.462 3968.021 836.424 Q 3968.464 836.385 3968.875 836.343 Q 3969.287 836.300 3970.456 836.100 Q 3971.625 835.900 3972.302 835.804 Q 3972.979 835.708 3973.413 835.682 Q 3973.847 835.656 3974.050 835.656 Q 3974.253 835.656 3975.258 835.685 Q 3976.264 835.713 3976.836 835.677 Q 3977.408 835.640 3977.833 835.583 Q 3978.258 835.526 3978.635 835.491 Q 3979.013 835.457 3979.398 835.437 Q 3979.783 835.418 3980.583 835.411 Q 3981.384 835.403 3982.160 835.363 Q 3982.935 835.323 3983.469 835.277 Q 3984.003 835.231 3984.222 835.209 Q 3984.441 835.187 3984.670 835.172 Q 3984.900 835.158 3985.065 835.156 Q 3985.231 835.155 3985.537 835.157 Q 3985.843 835.159 3986.830 835.226 Q 3987.817 835.293 3988.695 835.282 Q 3989.572 835.271 3990.095 835.261 Q 3990.618 835.252 3991.103 835.301 Q 3991.587 835.350 3992.961 835.435 Q 3994.335 835.519 3995.179 835.395 Q 3996.023 835.270 3997.251 835.104 Q 3998.479 834.939 3999.022 834.885 Q 3999.565 834.831 4001.301 834.861 Q 4003.036 834.891 4004.016 835.003 Q 4004.996 835.115 4005.750 835.141 Q 4006.504 835.167 4006.996 835.150 Q 4007.487 835.133 4008.629 835.161 Q 4009.771 835.189 4010.478 835.168 Q 4011.184 835.147 4011.980 835.114 Q 4012.776 835.080 4013.266 835.114 Q 4013.756 835.147 4014.487 835.242 Q 4015.219 835.337 4016.815 835.372 Q 4018.411 835.407 4019.448 835.519 Q 4020.484 835.632 4021.080 835.716 Q 4021.676 835.800 4022.059 835.758 Q 4022.442 835.715 4022.598 835.677 Q 4022.755 835.640 4022.846 835.630 Q 4022.938 835.621 4023.127 835.585 Q 4023.317 835.548 4024.927 835.249 "></path>
    <path id="STROKE_d741124d-3b56-4eb1-8e96-dee56dd5c04c" opacity="1.000" fill="none" stroke="#ffffff" stroke-width="1.360" stroke-opacity="1.000" stroke-linecap="round" stroke-linejoin="round" d="M 3922.793 837.261 L 3922.698 836.943 L 3922.720 836.731 Q 3922.728 836.640 3922.666 836.442 Q 3922.604 836.245 3922.580 836.198 Q 3922.555 836.152 3922.220 836.004 Q 3921.884 835.856 3921.640 835.868 Q 3921.396 835.879 3921.208 835.909 Q 3921.020 835.939 3920.950 835.930 Q 3920.881 835.922 3919.002 837.346 L 3918.954 837.569 Q 3918.964 837.965 3918.990 838.117 Q 3919.016 838.270 3919.067 838.370 Q 3919.087 838.508 3919.318 838.161 Q 3919.549 837.813 3919.850 837.384 Q 3920.151 836.955 3920.521 836.651 Q 3920.890 836.348 3921.003 836.286 Q 3921.116 836.224 3921.521 836.076 Q 3921.927 835.929 3923.098 835.683 Q 3924.270 835.438 3924.759 835.383 Q 3925.248 835.327 3925.704 835.302 Q 3926.159 835.277 3926.458 835.271 Q 3926.757 835.266 3927.250 835.240 Q 3927.742 835.215 3928.272 835.178 Q 3928.802 835.142 3929.331 835.104 Q 3929.859 835.066 3930.075 835.053 Q 3930.290 835.040 3930.307 835.032 Q 3930.324 835.024 3930.985 834.996 Q 3931.646 834.968 3932.081 834.987 Q 3932.515 835.006 3933.172 835.038 Q 3933.829 835.069 3934.310 835.079 Q 3934.790 835.089 3934.836 835.073 Q 3934.882 835.057 3936.664 835.163 Q 3938.446 835.269 3939.989 835.410 Q 3941.531 835.551 3942.441 835.510 Q 3943.352 835.469 3944.810 835.456 Q 3946.268 835.443 3947.135 835.487 Q 3948.002 835.531 3948.588 835.593 Q 3949.174 835.654 3949.535 835.703 Q 3949.897 835.752 3949.965 835.765 Q 3950.033 835.779 3951.033 835.826 Q 3952.033 835.874 3953.409 835.861 Q 3954.786 835.848 3955.983 835.697 Q 3957.180 835.545 3958.525 835.300 Q 3959.871 835.055 3960.839 834.987 Q 3961.808 834.920 3962.793 834.878 Q 3963.778 834.835 3964.565 834.781 Q 3965.352 834.727 3966.677 834.587 Q 3968.002 834.448 3968.924 834.361 Q 3969.846 834.273 3970.498 834.208 Q 3971.149 834.143 3971.403 834.109 Q 3971.657 834.076 3973.407 834.055 Q 3973.382 834.104 3969.716 834.519 Q 3966.050 834.935 3963.773 835.063 Q 3961.495 835.192 3959.207 835.386 Q 3956.918 835.580 3955.800 835.718 Q 3954.682 835.855 3953.763 835.876 Q 3952.844 835.896 3952.569 835.887 Q 3952.294 835.878 3952.043 835.875 Q 3951.792 835.872 3951.518 835.874 Q 3951.243 835.875 3949.188 835.912 Q 3947.132 835.950 3945.533 836.035 Q 3943.934 836.121 3942.921 836.323 Q 3941.908 836.526 3940.646 836.588 Q 3939.385 836.649 3938.623 836.652 Q 3937.861 836.655 3936.380 836.622 Q 3934.898 836.589 3934.313 836.573 Q 3933.729 836.558 3933.450 836.551 Q 3933.172 836.544 3932.853 836.524 Q 3932.533 836.505 3932.151 836.493 Q 3931.769 836.481 3930.883 836.481 Q 3929.998 836.481 3929.361 836.490 Q 3928.724 836.498 3928.339 836.520 Q 3927.953 836.542 3927.570 836.589 Q 3927.186 836.636 3926.772 836.706 Q 3926.358 836.777 3926.150 836.816 Q 3925.942 836.854 3925.120 836.946 Q 3925.171 836.845 3925.479 836.577 "></path>
    <path id="STROKE_39c3a1eb-30c5-4fd4-b582-7f2df4756d0c" opacity="1.000" fill="none" stroke="#ffffff" stroke-width="1.360" stroke-opacity="1.000" stroke-linecap="round" stroke-linejoin="round" d="M 3917.807 869.904 L 3917.844 869.893 Q 3918.151 869.897 3919.368 870.009 Q 3920.584 870.120 3921.972 870.301 Q 3923.361 870.481 3923.945 870.561 Q 3924.530 870.640 3924.962 870.690 Q 3925.395 870.739 3925.624 870.754 Q 3925.853 870.768 3926.201 870.788 Q 3926.549 870.809 3927.036 870.797 Q 3927.524 870.786 3927.833 870.762 Q 3928.142 870.739 3928.402 870.720 Q 3928.662 870.701 3928.816 870.680 Q 3928.970 870.660 3930.198 870.429 Q 3931.425 870.199 3932.283 870.127 Q 3933.141 870.056 3933.441 870.067 Q 3933.741 870.078 3934.334 870.106 Q 3934.927 870.134 3935.463 870.156 Q 3935.999 870.177 3936.783 870.211 Q 3937.566 870.245 3939.255 870.263 Q 3940.944 870.281 3941.420 870.275 Q 3941.897 870.268 3942.164 870.244 Q 3942.431 870.220 3942.938 870.169 Q 3943.446 870.119 3943.765 870.083 Q 3944.084 870.048 3944.422 870.015 Q 3944.759 869.983 3945.105 869.965 Q 3945.452 869.947 3945.625 869.938 Q 3945.798 869.928 3946.419 869.912 Q 3947.041 869.896 3947.469 869.900 Q 3947.896 869.903 3948.078 869.900 Q 3948.260 869.897 3949.671 870.043 Q 3951.083 870.190 3952.372 870.277 Q 3953.662 870.364 3954.411 870.326 Q 3955.160 870.289 3956.315 870.155 Q 3957.471 870.021 3958.248 869.880 Q 3959.024 869.739 3959.553 869.652 Q 3960.082 869.565 3960.556 869.506 Q 3961.029 869.447 3961.428 869.402 Q 3961.827 869.357 3962.442 869.345 Q 3963.057 869.333 3963.570 869.359 Q 3964.082 869.385 3964.142 869.384 Q 3964.202 869.383 3965.669 869.464 Q 3967.136 869.545 3967.934 869.597 Q 3968.731 869.650 3969.315 869.649 Q 3969.899 869.647 3970.133 869.637 Q 3970.367 869.626 3970.848 869.584 Q 3971.328 869.542 3971.715 869.485 Q 3972.101 869.429 3973.488 869.333 Q 3974.874 869.237 3975.699 869.237 Q 3976.525 869.237 3977.160 869.249 Q 3977.795 869.260 3978.328 869.310 Q 3978.861 869.360 3979.504 869.448 Q 3980.147 869.537 3980.180 869.554 Q 3980.214 869.571 3982.279 869.695 Q 3984.344 869.818 3985.448 869.795 Q 3986.551 869.772 3987.114 869.790 Q 3987.677 869.809 3989.104 869.908 Q 3990.532 870.007 3991.139 870.061 Q 3991.746 870.115 3992.097 870.154 Q 3992.447 870.193 3992.476 870.198 Q 3992.504 870.202 3993.126 870.257 Q 3993.749 870.312 3994.173 870.330 Q 3994.596 870.348 3995.307 870.351 Q 3996.017 870.354 3997.007 870.344 Q 3997.996 870.334 3998.051 870.338 Q 3998.105 870.341 3998.520 870.337 Q 3998.935 870.333 4000.592 870.608 Q 4002.250 870.883 4002.908 871.035 Q 4003.567 871.188 4004.060 871.302 Q 4004.552 871.415 4005.191 871.554 Q 4005.831 871.693 4005.888 871.708 Q 4005.946 871.724 4006.722 871.883 Q 4007.498 872.043 4007.826 872.091 Q 4008.154 872.139 4009.121 872.197 Q 4009.662 872.200 4009.683 872.192 Q 4009.704 872.184 4010.828 872.179 Q 4011.952 872.175 4012.740 872.222 Q 4013.528 872.270 4013.994 872.283 Q 4014.461 872.296 4014.894 872.305 Q 4015.328 872.314 4015.842 872.311 Q 4016.356 872.308 4016.588 872.299 Q 4016.821 872.290 4017.003 872.277 Q 4017.185 872.264 4018.077 872.180 Q 4018.969 872.097 4018.817 872.070 Q 4018.666 872.044 4017.817 871.969 Q 4016.968 871.895 4016.421 871.835 Q 4015.874 871.776 4013.822 871.704 Q 4011.769 871.632 4010.616 871.650 Q 4009.464 871.669 4008.617 871.812 Q 4007.771 871.956 4006.536 871.873 Q 4005.302 871.791 4004.809 871.674 Q 4004.316 871.556 4002.964 871.331 Q 4001.612 871.106 4000.252 871.108 Q 3998.893 871.109 3998.323 871.090 Q 3997.752 871.071 3997.317 871.038 Q 3996.881 871.005 3996.431 870.988 Q 3995.981 870.971 3995.903 870.968 Q 3995.825 870.964 3995.784 870.985 Q 3995.743 871.006 3993.895 870.924 Q 3992.046 870.842 3990.902 870.746 Q 3989.759 870.650 3989.537 870.669 Q 3989.314 870.687 3988.465 870.702 Q 3987.617 870.718 3986.124 870.620 Q 3984.630 870.522 3983.735 870.520 Q 3982.839 870.518 3982.141 870.572 Q 3981.443 870.626 3980.710 870.628 Q 3979.977 870.629 3979.508 870.594 Q 3979.040 870.558 3978.745 870.506 Q 3978.450 870.454 3976.725 870.312 Q 3975.001 870.171 3973.423 870.010 Q 3971.845 869.850 3971.227 869.716 Q 3970.607 869.582 3969.891 869.528 Q 3969.174 869.474 3968.810 869.470 Q 3968.445 869.467 3967.669 869.444 Q 3966.894 869.421 3966.293 869.363 Q 3965.692 869.305 3965.617 869.300 Q 3965.542 869.295 3965.153 869.215 Q 3964.763 869.135 3963.231 868.956 Q 3961.698 868.776 3961.007 868.746 Q 3960.315 868.715 3959.341 868.688 Q 3958.366 868.662 3957.489 868.725 Q 3956.611 868.788 3956.076 868.828 Q 3955.542 868.868 3954.823 868.889 Q 3954.104 868.911 3953.279 868.876 Q 3952.453 868.841 3952.049 868.807 Q 3951.644 868.773 3949.664 868.613 Q 3947.684 868.454 3946.644 868.461 Q 3945.604 868.469 3945.022 868.516 Q 3944.440 868.563 3943.867 868.607 Q 3943.294 868.650 3943.087 868.661 Q 3942.879 868.672 3941.681 868.795 Q 3940.482 868.918 3939.697 868.897 Q 3938.912 868.875 3938.346 868.798 Q 3937.780 868.721 3937.741 868.717 Q 3937.702 868.712 3936.788 868.654 Q 3935.873 868.597 3935.064 868.561 Q 3934.255 868.525 3934.021 868.512 Q 3933.787 868.499 3933.359 868.506 Q 3932.931 868.513 3932.571 868.531 Q 3932.211 868.550 3931.180 868.636 Q 3930.149 868.721 3928.642 868.754 Q 3927.135 868.786 3926.037 868.740 Q 3924.938 868.693 3924.452 868.667 Q 3923.966 868.642 3923.486 868.591 Q 3923.007 868.540 3922.330 868.522 Q 3921.652 868.505 3921.137 868.483 Q 3920.622 868.461 3920.358 868.466 Q 3920.095 868.470 3920.086 868.467 Q 3920.076 868.465 3919.340 868.630 Q 3919.454 868.787 3920.901 869.032 Q 3922.347 869.277 3923.328 869.393 Q 3924.308 869.509 3925.599 869.651 Q 3926.890 869.792 3928.061 869.872 Q 3929.232 869.951 3929.714 869.953 Q 3930.196 869.955 3930.454 869.954 Q 3930.711 869.953 3930.978 869.966 Q 3931.245 869.979 3931.573 870.017 Q 3931.902 870.056 3933.511 870.278 Q 3933.397 870.323 3933.386 870.314 Q 3933.375 870.305 3931.539 870.428 Q 3929.702 870.551 3928.056 870.595 Q 3926.410 870.638 3924.742 870.585 Q 3923.074 870.532 3922.444 870.470 Q 3921.813 870.408 3921.140 870.319 Q 3920.466 870.231 3920.011 870.163 Q 3919.557 870.095 3919.077 870.043 Q 3918.596 869.992 3918.312 869.944 Q 3918.028 869.896 3917.767 869.817 Q 3917.646 869.725 3920.486 867.789 L 3920.554 867.864 Q 3920.602 867.904 3920.745 867.985 Q 3920.889 868.065 3921.419 868.139 Q 3921.950 868.213 3923.104 868.203 Q 3924.258 868.192 3927.854 868.003 "></path>
    <path id="STROKE_04d3ecb7-3734-4e14-a935-08ab8a288302" opacity="1.000" fill="none" stroke="#5b77a8" stroke-width="1.360" stroke-opacity="1.000" stroke-linecap="round" stroke-linejoin="round" d="M 3878.721 856.737 L 3878.689 856.717 Q 3878.872 856.846 3880.375 857.130 Q 3881.879 857.415 3883.397 857.768 Q 3884.915 858.122 3885.801 858.432 Q 3886.687 858.742 3887.080 858.851 Q 3887.473 858.960 3887.646 859.003 Q 3887.819 859.045 3888.044 859.102 Q 3888.268 859.159 3888.541 859.238 Q 3888.813 859.316 3889.341 859.479 Q 3889.868 859.642 3890.687 859.987 Q 3891.505 860.333 3892.370 860.620 Q 3893.235 860.908 3893.905 861.044 Q 3894.574 861.180 3895.333 861.347 Q 3896.090 861.514 3896.750 861.699 Q 3897.410 861.885 3897.916 862.054 Q 3898.423 862.223 3898.788 862.348 Q 3899.153 862.474 3899.923 862.699 Q 3900.693 862.925 3901.291 863.103 Q 3901.889 863.280 3903.305 863.876 Q 3904.722 864.472 3905.735 864.811 Q 3906.748 865.151 3907.354 865.317 Q 3907.959 865.483 3908.421 865.601 Q 3908.882 865.719 3909.125 865.793 Q 3909.367 865.868 3909.569 865.940 Q 3909.771 866.012 3909.804 866.021 Q 3909.837 866.031 3910.675 866.365 Q 3911.512 866.699 3912.691 866.946 Q 3913.871 867.194 3914.429 867.258 Q 3914.987 867.322 3915.463 867.315 Q 3915.939 867.309 3916.083 867.274 Q 3916.227 867.239 3916.519 867.105 Q 3917.445 866.329 3917.464 866.295 Q 3917.675 865.964 3917.914 865.407 Q 3918.154 864.850 3918.418 864.338 Q 3918.682 863.827 3918.850 863.597 Q 3919.018 863.368 3919.500 862.881 Q 3919.981 862.394 3920.035 862.344 Q 3920.089 862.293 3920.300 862.128 Q 3920.511 861.963 3920.580 861.917 Q 3920.650 861.871 3920.868 861.751 Q 3921.086 861.630 3921.094 861.626 Q 3921.101 861.623 3921.195 861.569 Q 3921.290 861.516 3921.496 861.318 Q 3921.570 861.301 3921.373 861.031 Q 3921.175 860.762 3920.873 860.535 Q 3920.571 860.309 3920.413 860.202 Q 3920.254 860.095 3919.922 859.862 Q 3919.590 859.628 3919.357 859.448 Q 3919.124 859.269 3919.104 859.253 Q 3919.084 859.237 3918.795 858.973 Q 3918.506 858.709 3918.276 858.492 Q 3918.046 858.276 3917.946 858.173 Q 3917.845 858.070 3917.636 857.844 Q 3917.426 857.618 3917.416 857.602 Q 3917.405 857.585 3917.220 857.388 Q 3917.035 857.191 3916.793 856.951 Q 3916.551 856.710 3916.500 856.662 Q 3916.449 856.613 3916.187 856.239 Q 3915.924 855.864 3915.863 855.692 Q 3915.802 855.520 3915.803 855.468 Q 3915.803 855.415 3915.805 855.256 Q 3915.806 855.097 3915.835 854.899 Q 3915.864 854.701 3916.007 854.138 Q 3916.150 853.576 3916.349 853.019 Q 3916.548 852.461 3916.640 852.263 Q 3916.732 852.064 3916.797 851.959 Q 3916.862 851.854 3916.918 851.781 Q 3916.974 851.707 3917.423 851.247 Q 3917.871 850.787 3918.070 850.568 Q 3918.268 850.348 3918.281 850.333 Q 3918.293 850.318 3918.684 849.628 L 3918.696 849.452 Q 3918.874 848.400 3918.918 848.318 Q 3918.981 848.312 3919.495 848.788 Q 3919.471 848.865 3919.355 848.979 Q 3919.238 849.094 3919.247 849.101 L 3919.134 849.297 "></path>
    <path id="STROKE_8a5c02b8-f902-4778-8e9e-2c1b573420b2" opacity="1.000" fill="none" stroke="#5b77a8" stroke-width="1.360" stroke-opacity="1.000" stroke-linecap="round" stroke-linejoin="round" d="M 3917.468 852.042 Q 3917.425 852.510 3917.428 852.523 Q 3917.432 852.537 3917.331 853.025 Q 3917.229 853.514 3917.015 854.012 Q 3916.801 854.510 3916.721 854.769 Q 3916.641 855.028 3916.630 855.290 Q 3916.620 855.552 3916.654 855.813 Q 3916.688 856.075 3916.563 856.574 Q 3916.439 857.073 3916.351 857.457 Q 3916.264 857.841 3916.273 857.869 Q 3916.282 857.897 3916.292 858.007 Q 3916.303 858.116 3916.363 858.522 Q 3916.424 858.927 3916.528 859.181 Q 3916.633 859.435 3916.871 859.672 Q 3917.110 859.910 3917.262 859.979 Q 3917.415 860.049 3917.692 860.145 Q 3917.969 860.240 3918.107 860.275 Q 3918.244 860.310 3918.604 860.387 Q 3918.964 860.465 3919.391 860.606 Q 3919.818 860.748 3919.962 860.802 Q 3920.107 860.856 3920.300 860.930 Q 3920.493 861.004 3920.772 861.166 Q 3920.796 861.165 3920.684 861.271 Q 3920.571 861.377 3920.372 861.423 Q 3920.174 861.468 3919.977 861.435 Q 3919.780 861.401 3919.664 861.318 Q 3919.548 861.235 3919.383 861.086 Q 3919.313 861.118 3919.283 861.081 Q 3919.253 861.043 3919.013 861.449 Q 3918.773 861.855 3918.668 862.104 Q 3918.563 862.352 3918.311 862.978 L 3918.038 863.465 Q 3918.035 863.488 3917.806 863.798 Q 3917.577 864.109 3917.340 864.455 Q 3917.103 864.802 3916.957 865.037 Q 3916.812 865.271 3916.496 865.771 L 3916.339 865.966 Q 3916.307 865.992 3916.208 866.086 Q 3916.110 866.180 3916.031 866.207 Q 3915.953 866.233 3915.767 866.262 Q 3915.581 866.291 3915.304 866.270 Q 3915.028 866.250 3914.834 866.217 Q 3914.641 866.184 3914.338 866.124 Q 3914.035 866.064 3912.951 865.767 Q 3911.866 865.471 3911.332 865.280 Q 3910.798 865.090 3910.333 864.904 Q 3909.869 864.718 3909.053 864.464 Q 3908.237 864.209 3907.492 863.978 Q 3906.747 863.748 3906.255 863.583 Q 3905.762 863.418 3905.622 863.373 Q 3905.482 863.327 3904.436 862.992 Q 3903.390 862.658 3902.556 862.471 Q 3901.721 862.283 3901.208 862.195 Q 3900.694 862.106 3900.455 862.048 Q 3900.216 861.990 3899.304 861.710 Q 3898.392 861.431 3897.791 861.235 Q 3897.190 861.039 3896.206 860.784 Q 3895.221 860.529 3894.478 860.438 Q 3893.735 860.348 3893.329 860.307 Q 3892.924 860.267 3892.882 860.262 Q 3892.841 860.258 3892.331 860.154 Q 3891.820 860.050 3891.182 859.915 Q 3890.545 859.779 3889.861 859.617 Q 3889.178 859.455 3888.867 859.398 Q 3888.556 859.340 3887.773 859.244 Q 3887.887 859.313 3889.609 859.766 Q 3891.330 860.220 3892.756 860.461 Q 3894.183 860.703 3895.032 860.920 Q 3895.881 861.136 3896.019 861.194 Q 3896.156 861.252 3897.253 861.679 Q 3898.349 862.106 3899.243 862.403 Q 3900.137 862.700 3900.726 862.858 Q 3901.315 863.017 3901.708 863.089 Q 3902.102 863.161 3903.261 863.480 Q 3904.421 863.799 3905.351 864.118 Q 3906.281 864.436 3907.124 864.633 Q 3907.968 864.830 3908.488 864.947 Q 3909.008 865.064 3909.976 865.192 Q 3910.944 865.319 3911.417 865.342 Q 3911.888 865.364 3912.103 865.357 Q 3912.316 865.351 3912.671 865.325 Q 3913.025 865.300 3913.570 865.264 Q 3914.115 865.228 3914.874 865.006 Q 3915.633 864.784 3915.966 864.595 Q 3916.298 864.406 3916.578 864.208 Q 3916.858 864.010 3917.312 863.607 Q 3917.765 863.204 3917.901 863.025 Q 3918.038 862.846 3918.199 862.549 Q 3918.360 862.252 3918.519 861.911 Q 3918.677 861.569 3918.792 861.331 Q 3918.906 861.094 3918.910 861.061 Q 3918.913 861.027 3919.478 860.588 "></path>
    <path id="STROKE_7d87e743-3550-452a-bd3e-d8868993e49c" opacity="1.000" fill="none" stroke="#5b77a8" stroke-width="1.360" stroke-opacity="1.000" stroke-linecap="round" stroke-linejoin="round" d="M 3915.626 838.359 Q 3916.108 837.983 3916.518 837.791 Q 3916.927 837.598 3917.250 837.496 Q 3917.572 837.394 3917.898 837.301 Q 3918.224 837.208 3918.427 837.165 Q 3918.630 837.122 3919.162 836.968 Q 3919.694 836.814 3920.401 836.391 Q 3921.109 835.968 3921.693 835.527 Q 3922.278 835.087 3922.266 835.079 Q 3922.253 835.071 3922.251 835.047 L 3922.046 835.217 Q 3921.803 835.458 3921.609 835.717 Q 3921.415 835.976 3921.249 836.259 Q 3921.083 836.542 3920.840 837.034 Q 3920.598 837.527 3920.528 837.698 Q 3920.458 837.869 3920.392 838.080 Q 3920.324 838.292 3920.277 838.468 Q 3920.230 838.645 3920.209 838.714 Q 3920.189 838.784 3920.181 838.801 Q 3920.174 838.818 3920.079 839.295 Q 3919.984 839.771 3919.977 839.853 Q 3919.969 839.935 3919.958 840.405 L 3919.964 840.554 Q 3919.981 840.799 3920.005 840.938 Q 3920.028 841.077 3920.047 841.540 L 3920.012 841.495 Q 3919.980 841.480 3919.977 840.839 Q 3919.973 840.198 3920.010 839.749 Q 3920.047 839.299 3920.055 839.074 Q 3920.064 838.849 3920.058 838.829 Q 3920.052 838.809 3920.051 838.706 Q 3920.051 838.603 3920.049 838.578 Q 3920.048 838.553 3920.094 838.365 Q 3920.140 838.178 3920.141 838.167 Q 3920.142 838.156 3920.278 837.745 L 3920.270 837.738 Q 3920.071 837.799 3918.681 838.956 L 3918.703 838.980 Q 3918.761 838.984 3920.120 838.223 Q 3920.131 838.215 3919.750 838.583 Q 3919.370 838.951 3919.114 839.487 Q 3919.352 839.516 3919.355 839.496 Q 3919.433 839.450 3920.078 838.912 Q 3920.722 838.375 3921.028 837.677 Q 3921.334 836.980 3921.356 836.794 Q 3921.378 836.607 3921.027 836.095 L 3920.696 836.245 Q 3920.642 836.254 3920.324 836.823 Q 3920.006 837.392 3920.105 837.842 Q 3920.265 837.840 3921.043 837.140 Q 3921.821 836.439 3922.192 835.951 Q 3922.563 835.463 3922.557 835.101 Q 3922.564 835.052 3922.128 835.093 Q 3921.693 835.134 3920.103 835.743 Q 3920.132 835.811 3920.923 835.554 Q 3921.715 835.297 3920.831 835.665 Q 3919.946 836.034 3919.461 836.262 Q 3918.977 836.490 3918.650 836.670 Q 3918.323 836.850 3918.139 836.971 Q 3917.956 837.093 3917.603 837.279 Q 3917.249 837.464 3916.605 837.787 Q 3915.960 838.110 3915.267 838.469 Q 3914.573 838.828 3914.155 838.988 Q 3913.736 839.148 3913.509 839.226 Q 3913.282 839.304 3913.027 839.374 Q 3912.772 839.444 3912.409 839.509 Q 3912.047 839.574 3911.921 839.589 Q 3911.796 839.604 3911.688 839.603 Q 3911.579 839.603 3911.546 839.595 Q 3911.513 839.587 3911.689 839.520 Q 3911.864 839.453 3912.098 839.401 Q 3912.331 839.349 3912.369 839.338 Q 3912.408 839.328 3912.805 839.259 Q 3913.203 839.189 3918.693 838.072 L 3918.688 838.187 Q 3918.695 838.188 3918.663 838.467 Q 3918.631 838.747 3918.621 838.849 Q 3918.611 838.952 3918.657 839.128 Q 3918.704 839.304 3918.708 839.316 Q 3918.713 839.329 3918.799 839.545 Q 3918.885 839.761 3918.925 839.932 Q 3918.965 840.104 3919.021 840.394 Q 3919.076 840.684 3919.111 840.989 Q 3919.146 841.295 3919.150 841.396 Q 3919.153 841.498 3919.162 841.522 Q 3919.171 841.547 3918.855 843.995 Q 3918.758 844.056 3918.638 844.138 "></path>
    <path id="STROKE_c22c165d-4900-40d9-b138-590333db40a8" opacity="1.000" fill="none" stroke="#5b77a8" stroke-width="1.360" stroke-opacity="1.000" stroke-linecap="round" stroke-linejoin="round" d="M 3918.838 864.671 Q 3918.792 864.704 3918.671 864.756 Q 3918.555 864.915 3918.561 864.956 Q 3918.512 865.171 3918.552 866.040 Q 3918.591 866.909 3918.656 867.268 Q 3918.722 867.627 3918.808 867.821 Q 3918.893 868.016 3919.037 868.219 Q 3919.181 868.421 3919.335 868.636 Q 3919.490 868.850 3919.543 868.955 Q 3919.597 869.060 3919.596 869.072 Q 3919.594 869.084 3919.616 869.181 Q 3919.638 869.278 3919.407 869.507 Q 3919.177 869.736 3919.078 869.794 Q 3918.980 869.852 3918.967 869.850 Q 3918.955 869.848 3918.847 869.876 Q 3918.740 869.905 3917.871 869.695 Q 3917.002 869.485 3916.244 869.214 Q 3915.485 868.943 3915.132 868.867 Q 3915.444 869.062 3918.685 869.357 Q 3918.670 869.323 3918.664 869.290 Q 3918.657 869.257 3918.466 868.891 Q 3918.274 868.524 3918.174 868.277 Q 3918.074 868.029 3918.069 867.913 Q 3918.063 867.798 3918.082 867.727 Q 3918.101 867.657 3918.117 867.635 Q 3918.134 867.612 3918.177 867.550 Q 3918.220 867.487 3918.219 867.479 Q 3918.217 867.471 3918.469 867.373 Q 3918.576 867.475 3918.582 867.476 Q 3918.588 867.476 3918.732 867.871 Q 3918.877 868.266 3919.010 868.576 Q 3919.144 868.887 3919.320 869.256 Q 3919.496 869.625 3919.557 869.828 Q 3919.538 869.888 3919.219 870.000 Q 3918.900 870.111 3918.430 870.178 Q 3917.960 870.245 3917.652 870.241 Q 3917.345 870.238 3916.826 869.993 Q 3916.709 869.919 3917.788 870.386 Q 3917.804 870.368 3917.157 870.004 Q 3916.510 869.640 3915.554 869.203 Q 3914.597 868.765 3914.169 868.617 Q 3913.740 868.469 3913.424 868.378 Q 3913.107 868.288 3912.728 868.206 Q 3912.348 868.124 3912.164 868.084 Q 3911.979 868.044 3911.507 867.929 Q 3911.035 867.813 3910.742 867.762 Q 3910.449 867.711 3910.322 867.697 Q 3910.194 867.683 3910.044 867.666 Q 3909.893 867.648 3909.880 867.643 Q 3909.866 867.639 3909.670 867.624 Q 3909.473 867.610 3908.402 867.438 Q 3907.330 867.266 3906.196 866.578 "></path>
  </g>
</svg>