<?xml version="1.0" encoding="UTF-8" standalone="yes"?>
<svg xmlns="http://www.w3.org/2000/svg" xmlns:xlink="http://www.w3.org/1999/xlink" width="600pt" height="200pt" version="1.1" viewBox="4141.096 828.131 203.247 47.282">
  <!--
	Exported with Concepts: Smarter Sketching
	Version: 3657 on iOS 18.4
	https://concepts.app/
	-->
  <title>0B9A5EA0-693D-473F-B66F-CACEEB9E213C</title>
  <desc>Drawing exported from Concepts: Smarter Sketching</desc>
  <defs></defs>
  <g id="Watercolor" opacity="1.000">
    <path id="STROKE_1fe60b38-8375-4a4e-98be-845b9a3f8e99" opacity="1.000" fill="none" stroke="#ffffff" stroke-width="1.360" stroke-opacity="1.000" stroke-linecap="round" stroke-linejoin="round" d="M 4145.202 835.039 Q 4147.841 835.473 4150.336 835.632 Q 4152.831 835.791 4155.231 835.561 Q 4157.632 835.331 4160.209 835.490 Q 4162.787 835.648 4165.449 835.858 Q 4168.111 836.068 4169.429 836.042 Q 4170.747 836.015 4172.271 835.822 Q 4173.793 835.629 4177.724 835.623 Q 4181.654 835.617 4183.724 835.883 Q 4185.793 836.148 4188.333 836.027 Q 4190.872 835.905 4192.046 835.717 Q 4193.221 835.528 4194.319 835.322 Q 4195.417 835.115 4197.885 834.958 Q 4200.353 834.800 4202.019 834.704 Q 4203.684 834.609 4206.472 834.693 Q 4209.260 834.778 4211.246 834.608 Q 4213.232 834.438 4215.456 834.279 Q 4217.679 834.119 4219.640 834.279 Q 4221.600 834.438 4222.062 834.471 Q 4222.523 834.503 4223.269 834.539 Q 4224.014 834.574 4225.630 834.466 Q 4227.247 834.358 4228.664 834.208 Q 4230.082 834.058 4231.153 834.003 Q 4232.224 833.948 4232.344 833.940 Q 4232.463 833.932 4232.843 833.925 Q 4233.224 833.917 4234.943 833.855 Q 4236.663 833.793 4239.444 833.652 Q 4242.227 833.512 4243.883 833.451 Q 4245.539 833.390 4246.834 833.363 Q 4248.130 833.336 4252.379 833.042 Q 4252.732 832.668 4253.078 832.192 "></path>
    <path id="STROKE_a1fac9ee-e174-4379-a58a-d181d5700030" opacity="1.000" fill="none" stroke="#ffffff" stroke-width="1.360" stroke-opacity="1.000" stroke-linecap="round" stroke-linejoin="round" d="M 4144.097 869.657 Q 4148.582 869.903 4152.550 869.826 Q 4156.519 869.749 4158.391 869.689 Q 4160.262 869.630 4161.488 869.653 Q 4162.714 869.675 4163.658 869.759 Q 4164.602 869.844 4167.816 869.822 Q 4171.030 869.799 4173.680 869.372 Q 4176.329 868.945 4178.469 868.807 Q 4180.610 868.669 4184.675 869.010 Q 4188.741 869.351 4191.263 869.417 Q 4193.785 869.484 4194.943 869.430 Q 4196.102 869.377 4197.663 869.270 Q 4199.225 869.163 4201.318 869.132 Q 4203.412 869.101 4207.079 869.209 Q 4210.746 869.318 4212.945 869.484 Q 4215.144 869.650 4216.561 869.652 Q 4217.977 869.653 4218.926 869.689 Q 4219.875 869.726 4220.791 869.795 Q 4221.707 869.864 4222.532 869.924 Q 4223.357 869.985 4223.858 870.019 Q 4224.359 870.054 4224.811 870.094 Q 4225.263 870.134 4225.732 870.177 Q 4226.202 870.221 4226.861 870.302 Q 4227.521 870.383 4228.084 870.466 Q 4228.646 870.549 4229.101 870.622 Q 4229.555 870.694 4230.416 870.806 Q 4231.276 870.918 4231.601 870.949 Q 4231.925 870.980 4232.321 871.005 Q 4232.717 871.029 4233.286 871.063 Q 4233.855 871.097 4234.209 871.105 Q 4234.562 871.114 4235.806 871.139 Q 4237.049 871.164 4239.647 871.149 Q 4242.245 871.134 4243.491 871.183 Q 4244.737 871.231 4245.175 871.249 Q 4245.613 871.267 4246.170 871.297 Q 4246.727 871.328 4246.911 871.353 Q 4247.096 871.377 4250.841 871.478 "></path>
    <path id="STROKE_5cb8e7be-75ac-4dda-aa3c-cbf91c4fd872" opacity="1.000" fill="none" stroke="#ffffff" stroke-width="1.360" stroke-opacity="1.000" stroke-linecap="round" stroke-linejoin="round" d="M 4316.589 832.886 Q 4315.925 833.446 4315.927 833.479 Q 4315.929 833.512 4315.870 833.598 Q 4315.811 833.684 4315.815 833.861 Q 4315.821 834.039 4316.221 838.276 Q 4316.621 842.514 4317.030 845.267 Q 4317.440 848.021 4317.621 849.098 Q 4317.801 850.176 4318.076 851.260 Q 4318.351 852.344 4318.514 853.193 Q 4318.677 854.042 4318.746 854.782 Q 4318.815 855.522 4318.831 855.918 Q 4318.846 856.313 4318.937 857.806 Q 4319.028 859.298 4318.936 860.185 Q 4318.843 861.072 4318.624 861.874 Q 4318.405 862.676 4318.135 863.199 Q 4317.865 863.723 4317.852 863.758 Q 4317.838 863.793 4317.571 864.054 Q 4317.304 864.315 4316.658 864.562 "></path>
    <path id="STROKE_f85519dc-9b6d-4edb-a573-489aead439ed" opacity="1.000" fill="none" stroke="#ffffff" stroke-width="1.101" stroke-opacity="1.000" stroke-linecap="round" stroke-linejoin="round" d="M 4263.872 842.680 Q 4263.619 843.248 4262.801 845.563 Q 4261.982 847.877 4261.822 851.565 Q 4261.662 855.252 4262.947 862.695 "></path>
    <path id="STROKE_dbf64be0-18dd-4b1a-9342-f190e435c26f" opacity="1.000" fill="none" stroke="#ffffff" stroke-width="1.107" stroke-opacity="1.000" stroke-linecap="round" stroke-linejoin="round" d="M 4269.153 842.584 Q 4269.137 842.679 4269.121 842.712 Q 4269.105 842.744 4269.108 843.427 Q 4269.111 844.110 4269.173 844.814 Q 4269.234 845.518 4269.782 848.745 Q 4270.330 851.972 4270.378 862.813 "></path>
    <path id="STROKE_7554c77b-7e2e-4aa1-b7fd-0adf3d25a8d1" opacity="1.000" fill="none" stroke="#ffffff" stroke-width="1.193" stroke-opacity="1.000" stroke-linecap="round" stroke-linejoin="round" d="M 4278.463 843.036 L 4278.273 843.457 Q 4278.221 843.514 4278.071 846.576 Q 4277.921 849.637 4277.994 854.698 "></path>
    <path id="STROKE_05b91ce2-1794-4449-8aee-14b37a565da4" opacity="1.000" fill="none" stroke="#ffffff" stroke-width="1.360" stroke-opacity="1.000" stroke-linecap="round" stroke-linejoin="round" d="M 4287.670 832.770 Q 4286.138 832.263 4284.112 832.207 Q 4282.087 832.151 4279.894 833.022 "></path>
    <path id="STROKE_014ff960-b71d-4f1b-b3b2-76e3de24fd56" opacity="1.000" fill="none" stroke="#ffffff" stroke-width="1.360" stroke-opacity="1.000" stroke-linecap="round" stroke-linejoin="round" d="M 4279.561 833.767 Q 4279.681 833.828 4280.641 836.266 Q 4281.601 838.704 4281.968 840.633 Q 4282.335 842.561 4282.363 843.626 Q 4282.390 844.691 4282.221 846.075 Q 4282.051 847.460 4282.049 848.633 Q 4282.047 849.805 4282.189 850.581 Q 4282.331 851.356 4282.426 851.928 Q 4282.520 852.500 4282.592 852.844 Q 4282.664 853.188 4282.854 855.376 Q 4283.045 857.564 4282.577 859.571 Q 4282.109 861.578 4281.464 863.059 Q 4280.818 864.541 4280.170 866.453 L 4280.267 866.720 "></path>
    <path id="STROKE_ba380ed7-9838-4fa7-b93e-3249a6e03ccc" opacity="1.000" fill="none" stroke="#ffffff" stroke-width="1.360" stroke-opacity="1.000" stroke-linecap="round" stroke-linejoin="round" d="M 4279.565 868.134 L 4279.166 867.734 Q 4279.117 867.412 4282.024 866.893 Q 4284.931 866.374 4288.261 866.588 L 4288.763 866.778 "></path>
    <path id="STROKE_53c51add-2784-4e97-b90c-c949c43071f7" opacity="1.000" fill="none" stroke="#ffffff" stroke-width="1.263" stroke-opacity="1.000" stroke-linecap="round" stroke-linejoin="round" d="M 4288.373 833.926 L 4287.923 833.807 Q 4287.775 833.955 4289.153 839.000 Q 4290.531 844.046 4291.499 846.894 Q 4292.467 849.743 4292.824 851.388 Q 4293.180 853.034 4293.201 854.011 Q 4293.222 854.989 4292.143 857.163 Q 4291.063 859.337 4290.294 860.858 Q 4289.525 862.379 4289.306 863.910 Q 4289.087 865.441 4289.675 868.301 "></path>
    <path id="STROKE_f3fad2d4-4af2-4e4b-8fe1-990cf9fef308" opacity="1.000" fill="none" stroke="#ffffff" stroke-width="1.360" stroke-opacity="1.000" stroke-linecap="round" stroke-linejoin="round" d="M 4288.272 835.819 Q 4288.221 835.197 4282.161 835.874 L 4282.620 836.125 "></path>
    <path id="STROKE_bd51afb1-b2d4-4a88-b6c4-7762d09366d6" opacity="1.000" fill="none" stroke="#ffffff" stroke-width="1.360" stroke-opacity="1.000" stroke-linecap="round" stroke-linejoin="round" d="M 4288.939 839.241 Q 4288.795 839.052 4287.380 838.876 Q 4285.965 838.701 4285.229 838.757 Q 4284.494 838.814 4283.985 838.941 Q 4283.476 839.068 4283.392 839.157 L 4284.405 839.499 "></path>
    <path id="STROKE_859fc4db-1b68-4e8a-9b40-0b1386431732" opacity="1.000" fill="none" stroke="#ffffff" stroke-width="1.360" stroke-opacity="1.000" stroke-linecap="round" stroke-linejoin="round" d="M 4290.446 843.048 Q 4290.157 842.956 4288.565 842.835 Q 4286.974 842.714 4283.332 843.833 L 4283.599 844.086 "></path>
    <path id="STROKE_96a47aaa-882e-4701-b65c-d8a6e96e70fe" opacity="1.000" fill="none" stroke="#ffffff" stroke-width="1.360" stroke-opacity="1.000" stroke-linecap="round" stroke-linejoin="round" d="M 4289.999 847.423 Q 4289.654 847.258 4288.584 846.904 Q 4287.515 846.550 4284.640 847.530 Q 4284.578 847.624 4284.377 848.147 "></path>
    <path id="STROKE_34703c7e-1a2b-4224-a2e0-5befd0333ca2" opacity="1.000" fill="none" stroke="#ffffff" stroke-width="1.360" stroke-opacity="1.000" stroke-linecap="round" stroke-linejoin="round" d="M 4290.531 852.196 L 4289.972 851.883 L 4289.423 851.689 Q 4288.829 851.500 4285.765 851.995 L 4285.422 852.184 "></path>
    <path id="STROKE_8d79ef9d-7776-43d7-8a51-1900a828c799" opacity="1.000" fill="none" stroke="#ffffff" stroke-width="1.360" stroke-opacity="1.000" stroke-linecap="round" stroke-linejoin="round" d="M 4290.455 856.361 Q 4289.831 856.339 4289.320 856.343 Q 4288.810 856.347 4288.790 856.342 Q 4288.770 856.337 4287.204 856.609 Q 4285.637 856.880 4283.667 857.638 L 4283.346 857.802 "></path>
    <path id="STROKE_04bb29e4-1d91-4a6b-a3c7-21484fe416ef" opacity="1.000" fill="none" stroke="#ffffff" stroke-width="1.360" stroke-opacity="1.000" stroke-linecap="round" stroke-linejoin="round" d="M 4289.872 861.642 Q 4289.060 860.759 4281.674 863.488 "></path>
    <path id="STROKE_1cf0c239-f72e-456c-974a-32858b1dfb70" opacity="1.000" fill="none" stroke="#ffffff" stroke-width="1.360" stroke-opacity="1.000" stroke-linecap="round" stroke-linejoin="round" d="M 4287.038 866.414 Q 4286.974 866.331 4286.146 865.953 Q 4285.320 865.575 4284.897 865.527 Q 4284.475 865.479 4284.087 865.498 Q 4283.700 865.517 4283.373 865.553 Q 4283.046 865.590 4280.319 866.719 "></path>
    <path id="STROKE_43d4521c-3c59-4490-9608-0755266007a2" opacity="1.000" fill="none" stroke="#ffffff" stroke-width="1.360" stroke-opacity="1.000" stroke-linecap="round" stroke-linejoin="round" d="M 4252.550 868.822 Q 4252.674 868.770 4253.436 868.567 Q 4254.197 868.363 4255.541 868.153 Q 4256.885 867.943 4258.054 867.870 Q 4259.223 867.796 4260.014 867.850 Q 4260.805 867.904 4261.804 868.064 Q 4262.802 868.224 4263.196 868.290 Q 4263.590 868.356 4264.288 868.461 Q 4264.986 868.567 4265.651 868.654 Q 4266.317 868.741 4267.739 868.931 Q 4269.162 869.121 4270.433 869.224 Q 4271.704 869.328 4273.704 869.218 Q 4275.705 869.108 4276.810 868.981 Q 4277.915 868.854 4281.434 869.246 Q 4284.954 869.638 4285.812 869.752 Q 4286.671 869.866 4286.979 869.941 Q 4287.289 870.016 4289.153 870.203 Q 4291.017 870.391 4292.351 870.342 Q 4293.685 870.293 4294.001 870.260 Q 4294.316 870.226 4295.156 870.149 Q 4295.996 870.071 4296.919 870.004 Q 4297.843 869.938 4298.062 869.918 Q 4298.280 869.898 4300.654 869.797 Q 4303.028 869.697 4304.787 869.745 Q 4306.546 869.793 4307.400 869.860 Q 4308.255 869.927 4309.294 869.879 Q 4310.333 869.832 4311.061 869.762 Q 4311.787 869.693 4312.654 869.586 Q 4313.521 869.479 4313.832 869.412 Q 4314.144 869.345 4314.418 869.263 Q 4314.693 869.181 4315.082 869.032 Q 4315.470 868.883 4316.267 868.376 "></path>
    <path id="STROKE_ab4352e4-bdf8-46de-aeb9-c51aa2f78b3b" opacity="1.000" fill="none" stroke="#ffffff" stroke-width="1.360" stroke-opacity="1.000" stroke-linecap="round" stroke-linejoin="round" d="M 4253.854 833.684 L 4253.949 833.533 Q 4254.382 833.444 4254.415 833.466 Q 4254.686 833.521 4258.778 833.518 Q 4262.871 833.515 4265.515 833.564 Q 4268.159 833.614 4270.375 833.777 Q 4272.590 833.940 4273.462 833.892 Q 4274.333 833.844 4274.782 833.779 Q 4275.230 833.714 4276.058 833.597 Q 4276.884 833.480 4277.657 833.406 Q 4278.431 833.331 4278.990 833.310 Q 4279.549 833.289 4281.267 833.333 Q 4282.984 833.377 4285.012 833.473 Q 4287.040 833.568 4288.434 833.556 Q 4289.828 833.543 4290.549 833.503 Q 4291.270 833.462 4292.445 833.392 Q 4293.621 833.322 4297.151 833.113 Q 4300.682 832.904 4301.216 832.910 Q 4301.750 832.917 4302.662 832.982 Q 4303.575 833.048 4303.890 833.099 Q 4304.206 833.149 4307.402 833.371 Q 4310.600 833.592 4312.881 833.658 Q 4315.162 833.724 4318.144 832.556 "></path>
    <path id="STROKE_d50be124-c074-4151-8605-fe0fb90c2313" opacity="1.000" fill="none" stroke="#ffffff" stroke-width="1.360" stroke-opacity="1.000" stroke-linecap="round" stroke-linejoin="round" d="M 4254.304 869.099 L 4254.636 868.932 Q 4255.026 868.780 4256.891 868.268 Q 4258.756 867.756 4260.910 867.626 Q 4263.065 867.496 4264.169 867.533 Q 4265.273 867.570 4265.812 867.599 Q 4266.351 867.628 4267.181 867.709 Q 4268.011 867.791 4268.059 867.782 Q 4268.106 867.773 4269.279 867.960 Q 4270.452 868.147 4271.726 868.290 Q 4272.999 868.433 4274.562 868.318 Q 4276.124 868.202 4277.041 868.129 Q 4277.959 868.055 4278.670 868.085 Q 4279.381 868.114 4280.240 868.158 Q 4281.099 868.201 4281.569 868.221 Q 4282.039 868.241 4282.750 868.277 Q 4283.461 868.312 4283.521 868.310 Q 4283.582 868.308 4284.811 868.400 Q 4286.040 868.493 4286.845 868.587 Q 4287.651 868.681 4288.570 868.760 Q 4289.490 868.839 4290.510 868.885 Q 4291.531 868.930 4292.140 868.961 Q 4292.748 868.991 4294.060 868.965 Q 4295.371 868.938 4296.628 868.759 Q 4297.885 868.579 4298.896 868.452 Q 4299.909 868.326 4300.571 868.286 Q 4301.234 868.246 4302.465 868.136 Q 4303.695 868.025 4304.403 867.944 Q 4305.112 867.863 4306.069 867.733 Q 4307.025 867.603 4308.502 867.457 Q 4309.979 867.311 4310.756 867.274 Q 4311.534 867.238 4312.144 867.208 Q 4312.754 867.177 4312.951 867.175 Q 4313.148 867.173 4315.814 866.935 "></path>
    <path id="STROKE_8cce841b-5af6-4b89-89d1-e8bd2d458a75" opacity="1.000" fill="none" stroke="#f66640" stroke-width="1.360" stroke-opacity="1.000" stroke-linecap="round" stroke-linejoin="round" d="M 4316.594 834.392 Q 4317.036 834.345 4318.438 834.309 Q 4319.839 834.272 4320.850 834.295 Q 4321.860 834.318 4322.012 834.337 Q 4322.164 834.355 4324.537 834.452 Q 4326.911 834.548 4328.533 834.518 Q 4330.155 834.487 4331.383 834.445 Q 4332.611 834.403 4333.306 834.312 Q 4334.001 834.222 4334.400 834.142 Q 4334.799 834.063 4335.110 833.987 Q 4335.422 833.912 4335.454 833.896 Q 4335.486 833.880 4336.201 833.862 Q 4336.915 833.843 4337.351 833.947 Q 4337.787 834.051 4338.069 834.259 Q 4338.351 834.466 4338.793 834.891 Q 4339.235 835.316 4339.358 835.559 Q 4339.480 835.803 4339.566 836.274 Q 4339.652 836.745 4339.657 837.634 Q 4339.662 838.523 4339.676 839.447 Q 4339.690 840.370 4339.726 840.959 Q 4339.761 841.548 4339.811 842.106 Q 4339.859 842.664 4339.938 843.397 Q 4340.018 844.130 4340.043 844.420 Q 4340.069 844.710 4340.115 845.182 Q 4340.161 845.654 4340.186 846.246 Q 4340.209 846.838 4340.205 847.623 Q 4340.201 848.407 4340.194 848.438 Q 4340.187 848.469 4340.200 849.449 Q 4340.214 850.430 4340.338 851.911 Q 4340.462 853.392 4340.500 853.819 Q 4340.538 854.246 4340.575 854.837 Q 4340.613 855.427 4340.618 855.645 Q 4340.623 855.863 4340.610 856.407 Q 4340.597 856.952 4340.547 857.598 Q 4340.498 858.244 4340.453 858.660 Q 4340.408 859.075 4340.326 859.523 Q 4340.244 859.971 4340.099 860.650 Q 4339.955 861.330 4339.761 862.173 Q 4339.637 862.883 4339.594 863.455 Q 4339.550 864.026 4339.546 864.512 Q 4339.542 864.998 4339.438 865.942 L 4339.113 866.355 L 4338.754 866.572 Q 4338.083 866.816 4337.154 866.904 Q 4336.224 866.991 4335.470 866.898 Q 4334.715 866.805 4333.407 866.539 Q 4332.100 866.273 4331.860 866.227 Q 4331.621 866.180 4330.537 866.039 Q 4329.453 865.898 4328.688 865.872 Q 4327.923 865.845 4327.544 865.869 Q 4327.165 865.894 4326.868 865.932 Q 4326.571 865.970 4319.780 867.240 Q 4319.339 866.957 4318.709 866.420 "></path>
    <path id="STROKE_08674715-31ac-4936-aafc-e048aad778ad" opacity="1.000" fill="none" stroke="#ffffff" stroke-width="1.360" stroke-opacity="1.000" stroke-linecap="round" stroke-linejoin="round" d="M 4253.972 832.312 Q 4253.755 832.177 4253.656 832.131 L 4253.455 832.197 Q 4253.444 832.210 4252.978 832.549 Q 4252.512 832.888 4252.065 833.664 Q 4251.619 834.439 4251.437 834.906 Q 4251.255 835.374 4251.056 835.967 Q 4250.857 836.560 4250.489 837.555 Q 4250.122 838.550 4249.909 839.405 Q 4249.696 840.260 4249.572 840.924 Q 4249.449 841.587 4249.405 841.976 Q 4249.361 842.364 4249.351 842.661 Q 4249.340 842.958 4249.344 843.113 Q 4249.348 843.268 4249.375 844.056 Q 4249.403 844.844 4249.392 845.512 Q 4249.381 846.181 4249.378 846.500 Q 4249.375 846.818 4249.379 847.056 Q 4249.382 847.294 4249.364 848.319 Q 4249.345 849.343 4249.352 850.198 Q 4249.358 851.053 4249.453 852.250 Q 4249.548 853.446 4249.566 853.630 Q 4249.585 853.814 4249.632 854.462 Q 4249.678 855.109 4249.697 855.788 Q 4249.717 856.467 4249.715 856.635 Q 4249.713 856.802 4249.725 857.810 Q 4249.736 858.817 4249.820 859.535 Q 4249.904 860.253 4249.932 860.410 Q 4249.959 860.567 4249.974 860.663 Q 4249.988 860.759 4250.097 861.203 Q 4250.206 861.647 4250.291 861.933 Q 4250.377 862.219 4250.497 862.677 Q 4250.617 863.135 4250.712 863.544 Q 4250.807 863.954 4250.886 864.288 Q 4250.965 864.622 4251.048 865.042 Q 4251.130 865.463 4251.176 865.732 Q 4251.222 866.002 4251.290 866.368 Q 4251.358 866.735 4251.445 867.213 Q 4251.532 867.691 4251.562 867.873 Q 4251.593 868.054 4251.676 868.454 Q 4251.759 868.854 4251.772 868.913 Q 4251.786 868.972 4251.872 869.261 Q 4251.958 869.550 4252.009 869.707 Q 4252.059 869.863 4252.110 870.022 Q 4252.161 870.182 4252.185 870.262 Q 4252.208 870.343 4252.364 870.689 Q 4252.399 870.769 4252.480 870.893 L 4252.596 869.964 "></path>
    <path id="STROKE_3d5df4db-5c14-4203-9476-d324b22c506b" opacity="1.000" fill="none" stroke="#ffffff" stroke-width="1.360" stroke-opacity="1.000" stroke-linecap="round" stroke-linejoin="round" d="M 4251.542 872.374 L 4251.562 872.373 L 4251.793 872.267 Q 4252.372 872.091 4252.400 872.086 Q 4252.428 872.081 4253.579 871.738 Q 4254.729 871.395 4255.368 871.198 Q 4256.008 871.002 4256.590 870.880 Q 4257.172 870.758 4257.566 870.723 Q 4257.961 870.688 4258.230 870.676 Q 4258.499 870.664 4258.646 870.657 Q 4258.792 870.650 4259.813 870.667 Q 4260.834 870.684 4261.561 870.726 Q 4262.286 870.768 4262.564 870.784 Q 4262.843 870.800 4263.390 870.826 Q 4263.937 870.852 4264.193 870.851 Q 4264.451 870.850 4264.829 870.829 Q 4265.208 870.809 4265.749 870.753 Q 4266.289 870.697 4266.531 870.668 Q 4266.773 870.640 4267.238 870.614 Q 4267.703 870.588 4267.984 870.592 Q 4268.265 870.595 4268.449 870.597 Q 4268.634 870.600 4268.824 870.609 Q 4269.015 870.619 4270.420 870.671 Q 4271.826 870.723 4272.544 870.707 Q 4273.262 870.692 4273.881 870.687 Q 4274.499 870.682 4275.714 870.617 Q 4276.930 870.552 4277.602 870.505 Q 4278.274 870.458 4278.649 870.454 Q 4279.024 870.449 4279.420 870.471 Q 4279.815 870.492 4282.414 870.662 Q 4285.012 870.833 4286.625 870.811 Q 4288.238 870.790 4289.157 870.759 Q 4290.076 870.728 4290.570 870.679 Q 4291.065 870.631 4292.310 870.656 Q 4293.554 870.682 4294.497 870.723 Q 4295.439 870.764 4296.040 870.720 Q 4296.641 870.675 4297.238 870.569 Q 4297.836 870.462 4298.231 870.419 Q 4298.627 870.376 4298.888 870.350 Q 4299.147 870.324 4300.414 870.480 Q 4301.680 870.636 4302.527 870.708 Q 4303.374 870.780 4303.883 870.732 Q 4304.393 870.685 4305.092 870.632 Q 4305.791 870.579 4306.304 870.488 Q 4306.816 870.396 4307.051 870.330 Q 4307.285 870.263 4307.904 870.034 Q 4308.523 869.806 4308.645 869.762 Q 4308.767 869.719 4309.066 869.641 Q 4309.366 869.564 4310.591 869.401 Q 4311.816 869.238 4312.660 869.111 Q 4313.503 868.984 4313.890 868.911 Q 4314.276 868.837 4314.456 868.770 Q 4314.636 868.702 4314.747 868.628 Q 4314.858 868.554 4314.970 868.446 Q 4315.082 868.337 4315.209 868.108 L 4315.146 868.000 Q 4315.100 867.901 4313.443 867.870 Q 4311.786 867.839 4310.715 867.908 Q 4309.644 867.978 4308.781 868.212 Q 4307.919 868.447 4306.595 868.596 Q 4305.271 868.746 4304.486 868.744 Q 4303.702 868.743 4303.191 868.734 Q 4302.680 868.726 4301.983 868.758 Q 4301.287 868.791 4300.912 868.822 Q 4300.538 868.854 4298.797 868.878 Q 4297.057 868.902 4295.154 868.815 Q 4293.251 868.727 4291.839 868.677 Q 4290.426 868.626 4289.453 868.640 Q 4288.479 868.654 4286.190 868.546 Q 4283.900 868.438 4282.869 868.373 Q 4281.838 868.307 4280.820 868.397 Q 4279.801 868.487 4278.884 868.664 Q 4277.966 868.840 4276.934 868.922 Q 4275.902 869.003 4274.927 868.933 Q 4273.951 868.862 4272.337 868.939 Q 4270.722 869.016 4269.628 869.124 Q 4268.534 869.231 4266.891 869.247 Q 4265.248 869.264 4263.315 869.259 Q 4261.383 869.255 4260.396 869.202 Q 4259.410 869.149 4258.959 869.179 Q 4258.508 869.209 4257.833 869.324 Q 4257.159 869.440 4256.697 869.543 Q 4256.235 869.646 4255.960 869.692 Q 4255.686 869.738 4255.492 869.760 Q 4255.298 869.783 4255.206 869.781 Q 4255.114 869.778 4254.408 869.836 Q 4253.703 869.895 4253.146 869.969 Q 4252.589 870.043 4252.333 870.086 Q 4252.300 870.054 4253.104 869.921 Q 4253.907 869.788 4255.299 869.650 Q 4256.692 869.512 4259.070 868.852 Q 4259.159 868.831 4258.234 869.311 "></path>
    <path id="STROKE_6e56a716-98cb-4c5c-a83f-214fd3fec778" opacity="1.000" fill="none" stroke="#ffffff" stroke-width="1.360" stroke-opacity="1.000" stroke-linecap="round" stroke-linejoin="round" d="M 4253.867 871.982 L 4253.945 871.921 L 4254.056 871.850 Q 4254.106 871.865 4253.189 872.066 Q 4252.272 872.268 4251.656 872.307 Q 4251.041 872.346 4250.492 872.280 Q 4249.943 872.215 4249.472 872.117 Q 4249.001 872.019 4248.623 871.944 Q 4248.246 871.870 4248.086 871.829 Q 4247.926 871.788 4247.684 871.737 Q 4247.442 871.686 4247.436 871.688 Q 4247.429 871.691 4247.249 871.659 Q 4247.069 871.627 4246.705 871.624 Q 4246.340 871.620 4246.181 871.638 Q 4246.022 871.656 4245.341 871.715 Q 4244.660 871.774 4244.268 871.775 Q 4243.875 871.776 4243.407 871.797 Q 4242.939 871.818 4242.731 871.836 Q 4242.524 871.854 4241.808 871.898 Q 4241.092 871.943 4239.887 871.712 Q 4238.681 871.481 4237.809 871.347 Q 4236.937 871.213 4233.739 871.440 "></path>
    <path id="STROKE_7c725930-1a5f-47fe-b9f7-4d04cd6ae2b6" opacity="1.000" fill="none" stroke="#ffffff" stroke-width="1.360" stroke-opacity="1.000" stroke-linecap="round" stroke-linejoin="round" d="M 4250.933 836.532 Q 4250.964 836.472 4252.038 835.653 Q 4253.112 834.834 4253.740 834.429 Q 4254.369 834.025 4254.858 833.841 Q 4255.349 833.657 4256.008 833.496 Q 4256.667 833.334 4257.125 833.267 Q 4257.582 833.199 4257.589 833.199 Q 4257.596 833.200 4258.465 833.116 Q 4259.333 833.032 4260.464 833.038 Q 4261.595 833.044 4262.633 832.998 Q 4263.670 832.953 4264.161 832.899 Q 4264.651 832.846 4264.977 832.819 Q 4265.302 832.791 4265.574 832.762 Q 4265.847 832.734 4266.115 832.709 Q 4266.384 832.684 4266.604 832.661 Q 4266.823 832.638 4267.418 832.597 Q 4268.012 832.557 4268.413 832.544 Q 4268.813 832.532 4269.634 832.552 Q 4270.455 832.572 4271.014 832.605 Q 4271.572 832.639 4271.883 832.656 Q 4272.195 832.673 4273.271 832.782 Q 4274.346 832.891 4275.186 832.922 Q 4276.026 832.954 4276.489 832.922 Q 4276.952 832.890 4277.381 832.872 Q 4277.809 832.854 4278.169 832.837 Q 4278.528 832.820 4279.210 832.825 Q 4279.892 832.831 4279.965 832.831 Q 4280.038 832.832 4280.793 832.872 Q 4281.548 832.912 4281.800 832.934 Q 4282.053 832.956 4282.649 833.023 Q 4283.246 833.091 4283.543 833.120 Q 4283.841 833.148 4284.130 833.180 Q 4284.418 833.212 4285.506 833.226 Q 4286.593 833.240 4287.267 833.190 Q 4287.939 833.141 4288.960 833.118 Q 4289.980 833.096 4291.115 833.042 Q 4292.249 832.989 4292.821 832.997 Q 4293.393 833.005 4294.731 833.082 Q 4296.069 833.159 4298.279 833.025 Q 4300.489 832.890 4301.581 832.812 Q 4302.672 832.734 4303.433 832.722 Q 4304.193 832.710 4304.806 832.690 Q 4305.418 832.669 4306.084 832.652 Q 4306.749 832.636 4307.255 832.596 Q 4307.761 832.557 4307.984 832.535 Q 4308.207 832.513 4308.679 832.481 Q 4309.151 832.449 4309.576 832.444 Q 4310.001 832.438 4310.832 832.502 Q 4311.662 832.566 4312.118 832.635 Q 4312.574 832.704 4312.727 832.733 Q 4312.880 832.763 4313.816 832.931 Q 4314.751 833.099 4315.093 833.136 Q 4315.435 833.174 4315.794 833.198 Q 4316.152 833.223 4316.548 833.248 Q 4316.943 833.274 4317.318 833.304 Q 4317.693 833.335 4317.944 833.388 Q 4318.009 833.394 4317.694 833.753 Q 4317.378 834.112 4317.080 834.472 Q 4316.781 834.832 4316.637 835.204 Q 4316.492 835.576 4316.450 835.771 Q 4316.408 835.966 4316.394 836.170 Q 4316.379 836.375 4316.396 836.631 Q 4316.411 836.887 4316.479 837.200 Q 4316.548 837.513 4316.601 837.669 Q 4316.653 837.825 4316.672 837.867 Q 4316.608 837.738 4315.938 836.809 Q 4315.267 835.881 4314.604 835.301 Q 4313.940 834.721 4313.188 834.404 Q 4312.438 834.087 4311.531 833.899 Q 4310.625 833.710 4310.144 833.636 Q 4309.664 833.562 4309.063 833.469 Q 4308.463 833.375 4307.470 833.366 Q 4306.477 833.357 4305.813 833.408 Q 4305.150 833.459 4304.420 833.380 Q 4303.690 833.300 4303.081 833.230 Q 4302.472 833.159 4301.886 833.131 Q 4301.299 833.104 4300.250 833.198 Q 4299.201 833.292 4298.559 833.343 Q 4297.916 833.394 4297.604 833.406 Q 4297.293 833.419 4296.244 833.414 Q 4295.195 833.409 4294.226 833.422 Q 4293.256 833.436 4291.639 833.428 Q 4290.021 833.419 4289.076 833.454 Q 4288.131 833.489 4286.985 833.571 Q 4285.840 833.653 4285.062 833.553 Q 4284.285 833.454 4283.383 833.279 Q 4282.482 833.104 4281.460 833.055 Q 4280.438 833.006 4279.836 833.030 Q 4279.234 833.054 4279.087 833.077 Q 4278.940 833.101 4276.985 833.164 Q 4275.031 833.228 4274.038 833.216 Q 4273.044 833.204 4272.656 833.194 Q 4272.269 833.184 4271.566 833.115 Q 4270.864 833.047 4270.602 833.005 Q 4270.339 832.963 4269.211 832.833 Q 4268.082 832.704 4267.546 832.680 Q 4267.010 832.657 4266.594 832.678 Q 4266.177 832.700 4265.814 832.725 Q 4265.452 832.750 4265.037 832.759 Q 4264.622 832.768 4263.931 832.767 Q 4263.239 832.767 4262.822 832.741 Q 4262.406 832.715 4262.390 832.710 Q 4262.374 832.706 4261.663 832.632 Q 4260.951 832.559 4260.472 832.506 Q 4259.992 832.453 4259.479 832.384 Q 4258.966 832.314 4258.540 832.272 Q 4258.114 832.229 4257.983 832.217 Q 4257.852 832.204 4257.167 832.177 Q 4256.481 832.150 4255.960 832.168 Q 4255.438 832.185 4255.059 832.190 Q 4254.678 832.196 4254.168 832.227 Q 4253.658 832.259 4253.300 832.283 Q 4252.941 832.308 4252.399 832.350 Q 4251.857 832.392 4251.070 832.444 Q 4250.284 832.497 4249.791 832.538 Q 4249.298 832.579 4249.213 832.581 Q 4249.129 832.584 4248.614 832.665 Q 4248.100 832.746 4247.725 832.827 Q 4247.349 832.909 4247.190 832.948 Q 4247.031 832.988 4246.718 833.065 Q 4246.405 833.142 4246.083 833.232 Q 4245.760 833.322 4244.998 833.600 Q 4244.236 833.877 4243.791 834.016 Q 4243.347 834.155 4243.004 834.204 Q 4242.662 834.253 4241.902 834.222 "></path>
    <path id="STROKE_67311ac3-07d0-4067-a221-46aa65ed7a5d" opacity="1.000" fill="none" stroke="#ffffff" stroke-width="1.360" stroke-opacity="1.000" stroke-linecap="round" stroke-linejoin="round" d="M 4251.685 832.244 Q 4251.913 832.196 4252.036 832.177 Q 4252.158 832.158 4252.169 832.159 Q 4252.181 832.160 4253.361 832.306 Q 4254.542 832.452 4255.858 832.398 Q 4257.175 832.344 4258.027 832.301 Q 4258.878 832.257 4260.418 832.366 Q 4261.958 832.476 4262.902 832.490 Q 4263.845 832.504 4265.112 832.496 Q 4266.380 832.487 4267.229 832.507 Q 4268.079 832.527 4268.671 832.509 Q 4269.264 832.491 4269.745 832.481 Q 4270.227 832.471 4271.734 832.525 Q 4273.242 832.579 4274.079 832.604 Q 4274.915 832.629 4275.246 832.626 Q 4275.576 832.624 4275.869 832.636 Q 4276.163 832.649 4276.485 832.656 Q 4276.807 832.664 4277.068 832.660 Q 4277.329 832.655 4277.360 832.657 Q 4277.392 832.660 4277.761 832.627 Q 4278.130 832.594 4278.627 832.508 Q 4279.124 832.422 4279.585 832.362 Q 4280.046 832.302 4280.352 832.286 Q 4280.657 832.271 4281.147 832.271 Q 4281.637 832.271 4282.453 832.312 Q 4283.268 832.353 4283.967 832.394 Q 4284.666 832.436 4285.146 832.434 Q 4285.625 832.433 4286.405 832.353 Q 4287.184 832.273 4287.199 832.273 Q 4287.214 832.272 4288.188 832.137 Q 4289.163 832.002 4290.017 831.850 Q 4290.870 831.699 4292.317 831.716 Q 4293.765 831.732 4294.675 831.707 Q 4295.584 831.682 4296.478 831.616 Q 4297.372 831.551 4298.521 831.473 Q 4299.669 831.395 4300.321 831.311 Q 4300.974 831.228 4301.421 831.199 Q 4301.868 831.171 4301.875 831.169 Q 4301.883 831.167 4303.788 831.328 Q 4305.694 831.490 4306.854 831.519 Q 4308.015 831.548 4308.653 831.532 Q 4309.291 831.516 4310.173 831.545 Q 4311.054 831.574 4311.776 831.649 Q 4312.499 831.724 4312.980 831.743 Q 4313.461 831.762 4313.692 831.772 Q 4313.924 831.781 4314.372 831.798 Q 4314.819 831.814 4315.048 831.803 Q 4315.276 831.792 4317.335 832.043 L 4317.525 832.367 Q 4317.635 832.815 4317.646 832.894 Q 4317.655 832.972 4317.667 833.944 Q 4317.679 834.917 4317.670 835.320 Q 4317.661 835.724 4317.638 836.273 Q 4317.615 836.822 4317.597 837.147 Q 4317.579 837.472 4317.561 837.924 Q 4317.542 838.376 4317.525 838.567 Q 4317.508 838.758 4317.505 839.219 Q 4317.502 839.680 4317.508 840.031 Q 4317.514 840.382 4317.492 840.693 Q 4317.471 841.005 4317.449 841.175 Q 4317.428 841.344 4317.281 842.089 Q 4317.045 843.003 4317.035 843.055 Q 4317.025 843.106 4316.979 843.270 Q 4316.934 843.434 4316.830 843.948 Q 4316.726 844.462 4316.688 844.792 Q 4316.650 845.121 4316.637 845.153 Q 4316.623 845.185 4316.621 845.808 Q 4316.620 846.431 4316.667 847.535 Q 4316.715 848.639 4316.575 849.590 Q 4316.434 850.542 4316.312 851.292 Q 4316.188 852.042 4316.148 852.367 Q 4316.109 852.692 4316.072 852.953 Q 4316.035 853.214 4316.031 853.223 Q 4316.027 853.231 4315.965 853.841 Q 4315.902 854.452 4315.942 855.030 Q 4315.982 855.608 4316.224 856.288 Q 4316.465 856.969 4316.637 857.642 Q 4316.808 858.315 4316.864 858.656 Q 4316.920 858.996 4316.956 859.134 Q 4316.993 859.272 4317.089 859.656 Q 4317.186 860.039 4317.270 860.380 Q 4317.354 860.721 4317.396 860.884 Q 4317.437 861.046 4317.515 861.369 Q 4317.593 861.691 4317.648 862.559 Q 4317.704 863.427 4317.674 863.949 Q 4317.644 864.470 4317.618 864.696 Q 4317.593 864.922 4317.548 865.361 Q 4317.504 865.799 4317.444 866.124 Q 4317.385 866.449 4317.319 866.742 Q 4317.252 867.035 4317.252 867.063 Q 4317.251 867.091 4317.089 867.571 Q 4316.927 868.050 4316.823 868.157 Q 4316.792 868.219 4316.658 868.054 Q 4316.524 867.890 4316.356 867.484 Q 4316.188 867.078 4316.082 866.727 Q 4315.975 866.375 4315.938 866.057 Q 4315.899 865.738 4315.938 865.573 Q 4315.977 865.407 4316.020 865.340 Q 4316.063 865.273 4316.531 864.699 Q 4316.999 864.125 4317.220 863.829 Q 4317.440 863.534 4317.578 863.272 Q 4317.715 863.010 4317.973 862.449 Q 4318.230 861.888 4318.303 861.672 Q 4318.375 861.457 4318.395 861.382 Q 4318.415 861.307 4318.467 861.020 Q 4318.519 860.733 4318.560 860.308 Q 4318.600 859.883 4318.598 859.781 Q 4318.596 859.680 4318.582 859.181 Q 4318.567 858.682 4318.501 858.167 Q 4318.435 857.651 4318.382 857.469 Q 4318.328 857.286 4318.239 856.902 Q 4318.149 856.518 4317.896 855.817 Q 4317.644 855.116 4317.473 854.750 Q 4317.301 854.383 4317.246 854.203 Q 4317.191 854.022 4317.180 853.798 Q 4317.168 853.573 4317.191 853.151 Q 4317.214 852.729 4317.267 852.441 Q 4317.319 852.152 4317.335 852.119 Q 4317.351 852.085 4317.410 851.827 Q 4317.470 851.568 4317.514 851.324 Q 4317.558 851.080 4317.581 850.852 Q 4317.604 850.623 4317.634 849.670 Q 4317.630 848.812 4317.623 848.677 Q 4317.617 848.542 4317.658 847.163 Q 4317.699 845.784 4317.697 845.141 Q 4317.694 844.497 4317.639 844.157 Q 4317.584 843.817 4317.464 843.284 Q 4317.343 842.750 4317.323 842.668 Q 4317.304 842.585 4317.251 842.272 Q 4317.198 841.958 4317.127 841.539 Q 4317.057 841.120 4317.031 840.998 Q 4317.004 840.875 4316.880 840.284 Q 4316.756 839.692 4316.667 839.344 Q 4316.578 838.995 4316.482 838.658 Q 4316.387 838.321 4316.321 838.098 Q 4316.255 837.875 4316.239 837.180 Q 4316.224 836.485 4316.217 836.124 Q 4316.211 835.762 4316.206 835.557 Q 4316.202 835.352 4316.206 835.088 Q 4316.209 834.824 4316.220 834.650 Q 4316.230 834.476 4316.208 834.294 Q 4316.186 834.113 4316.124 833.977 Q 4316.062 833.841 4316.051 833.850 Q 4315.837 833.939 4314.724 834.738 Q 4314.719 834.776 4314.438 833.842 "></path>
    <path id="STROKE_84f83db2-4b0f-4cda-9f5d-fe6a8fdc33ed" opacity="1.000" fill="none" stroke="#f66640" stroke-width="1.360" stroke-opacity="1.000" stroke-linecap="round" stroke-linejoin="round" d="M 4317.820 869.425 L 4317.864 869.369 L 4318.278 868.984 Q 4318.757 868.600 4318.773 868.595 L 4319.235 868.326 L 4319.504 868.193 Q 4319.946 868.035 4320.269 867.961 Q 4320.590 867.888 4321.068 867.839 Q 4321.390 867.839 4321.630 867.852 Q 4321.870 867.865 4322.239 867.879 Q 4322.609 867.893 4323.167 867.879 Q 4323.725 867.865 4324.070 867.846 Q 4324.415 867.827 4324.663 867.818 Q 4324.910 867.810 4325.354 867.785 Q 4325.798 867.759 4326.108 867.730 Q 4326.418 867.701 4326.667 867.686 Q 4326.915 867.671 4328.139 867.718 Q 4329.363 867.766 4330.028 867.760 Q 4330.693 867.755 4331.279 867.722 Q 4331.866 867.690 4332.507 867.655 Q 4333.148 867.620 4333.270 867.614 Q 4333.391 867.607 4333.705 867.584 Q 4334.020 867.561 4334.366 867.521 Q 4334.712 867.482 4334.960 867.449 Q 4335.208 867.416 4335.927 867.331 Q 4336.646 867.247 4336.935 867.225 Q 4337.225 867.203 4337.573 867.183 Q 4337.922 867.164 4339.090 866.986 Q 4339.132 866.989 4339.066 866.800 Q 4339.000 866.611 4338.944 866.473 Q 4338.887 866.334 4338.793 866.020 Q 4338.699 865.705 4338.675 865.450 Q 4338.652 865.195 4338.713 864.365 Q 4338.774 863.534 4338.849 862.896 Q 4338.923 862.258 4338.941 861.999 Q 4338.959 861.740 4338.965 861.146 Q 4338.971 860.552 4338.991 860.156 Q 4339.011 859.761 4339.041 859.322 Q 4339.071 858.883 4339.077 858.703 Q 4339.082 858.522 4339.104 857.792 Q 4339.125 857.061 4339.125 856.897 Q 4339.126 856.732 4339.195 855.684 Q 4339.265 854.636 4339.278 853.904 Q 4339.291 853.171 4339.257 852.743 Q 4339.224 852.316 4339.190 851.947 Q 4339.157 851.579 4339.096 851.203 Q 4339.034 850.828 4338.977 850.547 Q 4338.919 850.266 4338.910 850.230 Q 4338.901 850.194 4338.869 849.959 Q 4338.836 849.725 4338.793 849.330 Q 4338.750 848.936 4338.707 848.575 Q 4338.665 848.213 4338.583 847.495 Q 4338.500 846.776 4338.437 846.318 Q 4338.373 845.860 4338.350 845.657 Q 4338.326 845.454 4338.300 845.126 Q 4338.274 844.798 4338.271 844.585 Q 4338.268 844.372 4338.275 844.131 Q 4338.284 843.891 4338.298 843.697 Q 4338.312 843.503 4338.320 843.479 Q 4338.329 843.454 4338.418 842.383 Q 4338.507 841.312 4338.539 840.714 Q 4338.570 840.116 4338.600 839.887 Q 4338.630 839.658 4338.691 839.208 Q 4338.753 838.757 4338.781 838.583 Q 4338.810 838.410 4338.831 838.305 Q 4338.853 838.199 4338.897 837.852 Q 4338.941 837.505 4338.929 837.182 Q 4338.916 836.859 4338.913 836.849 Q 4338.910 836.839 4338.884 836.663 Q 4338.857 836.486 4338.704 835.630 Q 4338.607 835.004 4338.559 834.729 Q 4338.510 834.453 4338.495 834.373 Q 4338.480 834.293 4338.346 833.891 L 4338.206 833.677 Q 4337.977 833.447 4337.896 833.394 Q 4337.814 833.341 4337.636 833.291 Q 4337.458 833.241 4337.220 833.223 Q 4336.981 833.205 4336.861 833.206 Q 4336.741 833.207 4336.205 833.230 Q 4335.668 833.253 4335.150 833.239 Q 4334.632 833.226 4334.116 833.187 Q 4333.601 833.149 4333.272 833.121 Q 4332.944 833.093 4332.580 833.044 Q 4332.217 832.996 4331.596 832.921 Q 4330.975 832.847 4330.492 832.820 Q 4330.010 832.793 4329.441 832.804 Q 4328.874 832.814 4328.208 832.771 Q 4327.543 832.728 4327.175 832.688 Q 4326.806 832.647 4326.521 832.619 Q 4326.237 832.590 4325.840 832.543 Q 4325.444 832.496 4325.085 832.421 Q 4324.727 832.345 4324.579 832.304 Q 4324.430 832.263 4324.124 832.189 Q 4323.818 832.115 4323.465 832.055 Q 4323.111 831.996 4322.805 831.962 Q 4322.499 831.929 4322.049 831.903 Q 4321.598 831.876 4321.300 831.880 Q 4321.001 831.884 4320.782 831.899 Q 4320.563 831.915 4320.296 831.971 Q 4320.028 832.027 4319.566 832.276 L 4319.700 832.451 L 4319.797 832.533 Q 4319.798 832.547 4320.019 832.644 Q 4320.240 832.741 4320.362 832.768 Q 4320.485 832.794 4320.601 832.809 Q 4320.717 832.824 4321.118 832.833 Q 4321.519 832.841 4321.651 832.833 Q 4321.783 832.824 4322.504 832.745 Q 4323.226 832.666 4323.423 832.650 Q 4323.621 832.635 4323.831 832.626 Q 4324.040 832.618 4324.348 832.607 Q 4324.656 832.597 4325.185 832.600 Q 4325.713 832.602 4326.237 832.594 Q 4326.762 832.587 4327.367 832.551 Q 4327.973 832.515 4328.411 832.480 Q 4328.850 832.444 4329.152 832.416 Q 4329.456 832.387 4329.488 832.387 Q 4329.521 832.387 4329.638 832.375 Q 4329.754 832.362 4330.800 832.277 Q 4331.845 832.192 4332.442 832.217 Q 4333.039 832.241 4333.325 832.310 Q 4333.612 832.379 4333.940 832.465 Q 4334.269 832.552 4334.742 832.654 Q 4335.215 832.756 4335.669 832.820 Q 4336.123 832.883 4336.372 832.902 Q 4336.621 832.920 4336.778 832.927 Q 4336.936 832.933 4337.514 832.971 Q 4338.091 833.010 4338.284 833.033 Q 4338.476 833.057 4338.678 833.092 Q 4338.880 833.127 4339.082 833.167 Q 4339.284 833.208 4339.644 833.358 Q 4340.004 833.507 4340.125 833.586 Q 4340.247 833.665 4340.656 834.127 Q 4341.066 834.590 4341.120 834.703 Q 4341.173 834.815 4341.215 834.953 Q 4341.256 835.091 4341.281 835.277 Q 4341.307 835.463 4341.303 835.780 Q 4341.298 836.096 4341.260 836.370 Q 4341.222 836.644 4341.215 836.668 Q 4341.208 836.692 4341.032 837.479 Q 4340.856 838.265 4340.789 838.672 Q 4340.721 839.078 4340.717 839.328 Q 4340.712 839.579 4340.713 839.730 Q 4340.714 839.881 4340.720 840.067 Q 4340.727 840.253 4340.764 840.946 Q 4340.802 841.638 4340.832 842.099 Q 4340.863 842.561 4340.857 843.066 Q 4340.853 843.571 4340.773 844.257 Q 4340.693 844.942 4340.653 845.254 Q 4340.614 845.566 4340.584 845.980 Q 4340.555 846.394 4340.545 846.974 Q 4340.535 847.554 4340.543 847.699 Q 4340.551 847.844 4340.605 848.345 Q 4340.660 848.846 4340.722 849.239 Q 4340.784 849.631 4340.859 850.070 Q 4340.935 850.508 4340.949 850.621 Q 4340.964 850.734 4340.972 850.844 Q 4340.980 850.954 4340.990 850.972 Q 4341.000 850.990 4340.978 851.974 Q 4340.956 852.958 4340.745 853.897 Q 4340.534 854.837 4340.448 855.489 Q 4340.363 856.140 4340.376 856.272 Q 4340.390 856.404 4340.404 856.764 Q 4340.418 857.124 4340.439 857.512 Q 4340.461 857.900 4340.487 858.200 Q 4340.513 858.500 4340.583 858.954 Q 4340.654 859.407 4340.653 859.411 Q 4340.652 859.415 4340.706 859.698 Q 4340.760 859.980 4340.848 860.401 Q 4340.936 860.822 4340.955 860.904 Q 4340.974 860.985 4341.018 861.336 Q 4341.062 861.687 4341.076 861.856 Q 4341.090 862.024 4341.104 862.217 Q 4341.119 862.409 4341.121 862.416 Q 4341.123 862.423 4341.123 862.765 Q 4341.123 863.107 4341.064 863.570 Q 4341.005 864.033 4340.916 864.351 Q 4340.826 864.669 4340.732 864.899 Q 4340.639 865.128 4340.619 865.181 Q 4340.599 865.234 4340.347 865.568 Q 4340.095 865.901 4339.954 866.025 Q 4339.813 866.148 4339.729 866.222 Q 4339.644 866.296 4339.449 866.421 Q 4339.254 866.546 4339.199 866.573 Q 4339.144 866.599 4338.763 866.726 Q 4338.381 866.852 4338.077 866.925 Q 4337.773 866.998 4337.332 866.963 Q 4336.891 866.929 4336.627 866.833 Q 4336.364 866.737 4336.202 866.639 Q 4336.041 866.541 4336.004 866.517 Q 4335.967 866.492 4335.714 866.176 Q 4335.798 866.018 4335.884 865.930 Q 4335.971 865.842 4338.316 864.598 Q 4338.410 864.373 4338.486 864.135 Q 4338.563 863.897 4338.607 863.656 Q 4338.651 863.416 4338.672 863.243 Q 4338.692 863.071 4338.750 862.292 Q 4338.808 861.514 4338.662 860.226 Q 4338.647 860.352 4338.650 860.485 Q 4338.652 860.618 4338.655 860.837 Q 4338.658 861.055 4338.665 861.202 Q 4338.672 861.350 4338.585 862.003 Q 4338.499 862.656 4338.349 862.946 Q 4338.198 863.236 4338.103 863.372 Q 4338.008 863.507 4337.890 863.634 Q 4337.772 863.762 4337.694 863.842 Q 4337.615 863.923 4337.271 864.210 Q 4336.928 864.498 4336.660 864.664 Q 4336.393 864.830 4335.949 865.062 Q 4335.505 865.293 4335.123 865.440 Q 4334.741 865.587 4334.319 865.700 Q 4333.898 865.813 4333.491 865.891 Q 4333.083 865.968 4332.483 866.043 Q 4331.884 866.118 4331.442 866.173 Q 4331.000 866.228 4330.086 866.302 Q 4329.171 866.375 4328.464 866.457 Q 4327.756 866.539 4326.938 866.618 Q 4326.120 866.697 4325.675 866.698 Q 4325.230 866.700 4324.895 866.635 Q 4324.560 866.569 4324.304 866.487 Q 4324.047 866.404 4323.701 866.285 Q 4323.354 866.167 4323.049 866.076 Q 4322.745 865.986 4322.388 865.905 Q 4322.030 865.824 4322.004 865.816 Q 4321.978 865.809 4321.171 865.708 Q 4320.364 865.606 4321.770 865.768 Q 4323.175 865.930 4324.312 865.915 Q 4325.448 865.900 4325.911 865.847 Q 4326.374 865.793 4326.613 865.752 Q 4326.853 865.711 4327.835 865.467 Q 4328.818 865.223 4329.633 865.051 Q 4330.449 864.878 4331.442 864.682 Q 4332.435 864.485 4333.685 864.037 Q 4334.934 863.589 4335.658 863.224 Q 4336.381 862.858 4336.615 862.691 Q 4336.849 862.524 4337.099 862.303 Q 4337.349 862.083 4337.359 862.076 Q 4337.370 862.069 4337.689 861.750 Q 4338.009 861.430 4338.457 860.757 Q 4338.905 860.083 4339.134 859.641 Q 4339.362 859.198 4339.433 858.859 Q 4339.503 858.520 4339.496 858.304 Q 4339.489 858.088 4339.455 857.846 Q 4339.420 857.604 4339.387 857.453 Q 4339.353 857.302 4339.300 857.100 Q 4339.248 856.897 4339.211 856.718 L 4339.219 856.641 Q 4339.255 856.744 4339.245 856.762 Q 4339.271 857.294 4339.273 857.472 Q 4339.275 857.649 4339.248 858.136 Q 4339.220 858.623 4338.989 859.216 Q 4338.759 859.809 4338.479 860.190 Q 4338.200 860.571 4337.815 860.941 Q 4337.432 861.311 4336.745 861.661 Q 4336.059 862.012 4335.488 862.183 Q 4334.917 862.355 4334.512 862.426 Q 4334.106 862.498 4333.761 862.534 Q 4333.416 862.571 4332.768 862.650 Q 4332.120 862.729 4331.723 862.816 Q 4331.326 862.903 4331.155 862.948 Q 4330.985 862.993 4329.641 863.380 Q 4328.296 863.767 4327.118 864.060 Q 4325.939 864.353 4325.188 864.400 Q 4324.436 864.447 4324.124 864.438 Q 4323.812 864.430 4320.052 864.379 Q 4320.044 864.383 4319.957 864.798 Q 4319.869 865.213 4319.762 865.744 Q 4319.656 866.274 4319.623 866.458 Q 4319.589 866.641 4319.573 866.754 Q 4319.558 866.868 4319.535 867.085 Q 4319.512 867.302 4319.482 867.625 Q 4319.453 867.949 4319.449 868.002 Q 4319.444 868.056 4319.389 868.296 Q 4319.333 868.536 4319.250 868.682 Q 4319.166 868.828 4318.821 869.191 L 4318.631 869.332 Q 4318.228 869.502 4318.064 869.545 Q 4317.900 869.588 4317.723 869.614 Q 4317.546 869.640 4317.488 869.639 Q 4317.431 869.638 4317.295 869.590 Q 4317.160 869.542 4317.190 869.519 Q 4317.221 869.495 4317.335 869.467 Q 4317.449 869.439 4317.692 869.398 Q 4317.935 869.357 4318.141 869.323 Q 4318.347 869.290 4318.891 869.239 Q 4319.436 869.188 4319.984 869.187 Q 4320.534 869.186 4320.934 869.184 Q 4321.334 869.181 4321.452 869.177 Q 4321.569 869.174 4321.963 869.169 Q 4322.356 869.165 4322.689 869.145 Q 4323.023 869.125 4323.317 869.093 Q 4323.612 869.061 4324.427 868.943 Q 4325.241 868.825 4325.845 868.741 Q 4326.448 868.657 4326.875 868.615 Q 4327.302 868.573 4327.896 868.528 Q 4328.489 868.482 4328.844 868.453 Q 4329.198 868.424 4329.739 868.372 Q 4330.281 868.320 4330.694 868.273 Q 4331.107 868.226 4331.713 868.123 Q 4332.319 868.020 4332.612 867.972 Q 4332.905 867.925 4333.128 867.891 Q 4333.352 867.857 4333.674 867.801 Q 4333.996 867.745 4334.007 867.737 Q 4334.018 867.729 4334.190 867.706 Q 4334.363 867.682 4334.987 867.469 Q 4335.612 867.256 4336.068 867.005 Q 4336.525 866.754 4337.515 865.917 Q 4338.504 865.081 4338.902 864.161 "></path>
  </g>
</svg>