<?xml version="1.0" encoding="UTF-8" standalone="yes"?>
<svg xmlns="http://www.w3.org/2000/svg" xmlns:xlink="http://www.w3.org/1999/xlink" width="26.765pt" height="24.150pt" version="1.1" viewBox="4344.393 850.484 26.765 24.150">
  <!--
	Exported with Concepts: Smarter Sketching
	Version: 3657 on iOS 18.4
	https://concepts.app/
	-->
  <title>0B9A5EA0-693D-473F-B66F-CACEEB9E213C</title>
  <desc>Drawing exported from Concepts: Smarter Sketching</desc>
  <defs></defs>
  <g id="Watercolor" opacity="1.000">
    <path id="STROKE_811f2904-8859-4ab3-a0eb-ca9fb38e9813" opacity="1.000" fill="none" stroke="#5b77a8" stroke-width="0.704" stroke-opacity="1.000" stroke-linecap="round" stroke-linejoin="round" d="M 4357.517 853.417 Q 4357.909 852.891 4359.736 851.483 Q 4359.894 851.687 4356.386 854.823 Q 4352.878 857.960 4345.392 867.343 Q 4345.570 867.502 4347.419 866.576 Q 4349.268 865.651 4351.002 864.286 Q 4352.736 862.921 4355.009 861.153 Q 4357.282 859.385 4362.524 855.822 Q 4362.033 855.957 4348.044 866.207 Q 4348.074 866.186 4365.897 853.151 Q 4365.898 853.101 4363.152 855.503 Q 4360.406 857.905 4357.957 859.747 Q 4355.507 861.589 4348.388 867.705 Q 4348.421 867.800 4351.728 865.827 Q 4355.034 863.854 4358.902 861.361 Q 4362.770 858.867 4365.138 857.440 Q 4367.506 856.013 4369.188 855.349 Q 4369.130 855.307 4363.670 859.322 Q 4358.210 863.337 4352.615 867.481 Q 4352.878 867.595 4356.930 865.547 Q 4360.982 863.499 4365.337 860.609 Q 4365.379 860.702 4362.933 862.456 Q 4360.487 864.210 4358.841 865.255 Q 4357.196 866.301 4356.296 867.109 Q 4356.602 867.347 4360.067 865.075 Q 4363.532 862.804 4367.472 860.942 Q 4367.462 860.947 4365.914 862.325 Q 4364.365 863.704 4362.184 865.567 Q 4360.003 867.431 4358.190 868.609 Q 4356.377 869.788 4355.360 870.379 Q 4354.344 870.971 4353.763 871.341 Q 4353.859 871.427 4359.063 868.108 Q 4364.267 864.789 4370.228 861.422 Q 4370.229 861.480 4368.078 863.250 Q 4365.926 865.019 4364.124 866.537 Q 4362.321 868.054 4361.277 868.953 Q 4360.233 869.851 4358.585 871.250 Q 4358.616 871.280 4367.191 866.851 Q 4367.417 866.776 4360.127 873.638 Q 4360.987 873.269 4360.887 873.216 Q 4360.786 873.164 4368.908 868.676 L 4368.912 868.681 Q 4368.472 868.921 4362.207 873.456 Q 4362.136 873.462 4368.930 869.882 Q 4368.933 869.933 4367.355 871.023 "></path>
  </g>
</svg>